<mxfile host="app.diagrams.net" agent="Mozilla/5.0 (Windows NT 10.0; Win64; x64) AppleWebKit/537.36 (KHTML, like Gecko) Chrome/138.0.0.0 Safari/537.36 Edg/138.0.0.0" version="28.0.6">
  <diagram name="第 1 页" id="9sJfBkEP3ezxj0zS32Ns">
    <mxGraphModel dx="1240" dy="744" grid="1" gridSize="10" guides="1" tooltips="1" connect="1" arrows="1" fold="1" page="1" pageScale="1" pageWidth="827" pageHeight="1169" math="0" shadow="0">
      <root>
        <mxCell id="0" />
        <mxCell id="1" parent="0" />
        <mxCell id="yV69nBCy1edd1DYRwR0H-174" style="edgeStyle=orthogonalEdgeStyle;rounded=1;orthogonalLoop=1;jettySize=auto;html=1;exitX=1;exitY=0.5;exitDx=0;exitDy=0;entryX=0;entryY=0.5;entryDx=0;entryDy=0;entryPerimeter=0;strokeColor=#67AB9F;strokeWidth=2;align=center;verticalAlign=middle;fontFamily=Helvetica;fontSize=11;fontColor=default;labelBackgroundColor=default;elbow=vertical;endArrow=none;endFill=0;" edge="1" parent="1" source="yV69nBCy1edd1DYRwR0H-171" target="yV69nBCy1edd1DYRwR0H-173">
          <mxGeometry relative="1" as="geometry">
            <mxPoint x="160" y="1140" as="sourcePoint" />
            <mxPoint x="285" y="1242" as="targetPoint" />
            <Array as="points">
              <mxPoint x="110" y="1110" />
              <mxPoint x="110" y="1145" />
            </Array>
          </mxGeometry>
        </mxCell>
        <mxCell id="yV69nBCy1edd1DYRwR0H-172" style="edgeStyle=orthogonalEdgeStyle;rounded=1;orthogonalLoop=1;jettySize=auto;html=1;exitX=1;exitY=0.5;exitDx=0;exitDy=0;entryX=0;entryY=0.25;entryDx=0;entryDy=0;entryPerimeter=0;strokeColor=#67AB9F;strokeWidth=2;align=center;verticalAlign=middle;fontFamily=Helvetica;fontSize=11;fontColor=default;labelBackgroundColor=default;elbow=vertical;endArrow=none;endFill=0;" edge="1" parent="1" source="yV69nBCy1edd1DYRwR0H-171" target="yV69nBCy1edd1DYRwR0H-159">
          <mxGeometry relative="1" as="geometry">
            <Array as="points">
              <mxPoint x="110" y="1110" />
              <mxPoint x="110" y="1212" />
            </Array>
          </mxGeometry>
        </mxCell>
        <mxCell id="yV69nBCy1edd1DYRwR0H-1" value="" style="rounded=0;whiteSpace=wrap;html=1;" vertex="1" parent="1">
          <mxGeometry x="60.03" y="40" width="840" height="820" as="geometry" />
        </mxCell>
        <mxCell id="yV69nBCy1edd1DYRwR0H-2" value="" style="shape=image;verticalLabelPosition=bottom;labelBackgroundColor=default;verticalAlign=top;aspect=fixed;imageAspect=0;image=data:image/png,iVBORw0KGgoAAAANSUhEUgAAACoAAAA5CAMAAAEAWHnKAAAAAXNSR0IArs4c6QAAAARnQU1BAACxjwv8YQUAAAA/UExURQAAAAAAAAAAAAAAAAAAAAAAAAAAAAAAAAAAAAAAAAAAAAAAAAAAAAAAAAAAAAAAAAAAAAAAAAAAAAAAAAAAALMlgi8AAAAUdFJOUwAIEIcglzCfOKdAt1jPaHDf54Dv4vA5JAAAAAlwSFlzAAAXEQAAFxEByibzPwAAAQdJREFUOE/tlNsOgjAQRAfEu1WE+f9vNe1KW7YrQgIPJs5DszkMs2VJC2hR1l2qI0smrSaswdCnUrA8mxIZoymvC40lwJiSquVyQ6RL4V0sO8JJdc9a5/0SznZsVKhitbb01zeOpPytXE9PFevIPk4gY2MCoKU9ZNq87GRbLVYZ7Gd00wB4kKcSlROqA2wVFawD/OCKAA8vRQDJA2oVEKCWCWFsCcBxKT5r9oGaCVtAXC0I7DX4ax01D1deSlreZJ+DkY5iEhWHY6z6nWjdiVrd4Jxunxm/tRdjf/DbmGwfjV61fpppZJxU+PA5xuFGauddvDL9Lcxt2LGmhman/oJxyfCr60zjC0BSF19ImznkAAAAAElFTkSuQmCC;strokeWidth=3;" vertex="1" parent="1">
          <mxGeometry x="859.03" y="250" width="21" height="28.5" as="geometry" />
        </mxCell>
        <mxCell id="yV69nBCy1edd1DYRwR0H-3" value="&lt;p style=&quot;language:zh-CN;margin-top:0pt;margin-bottom:0pt;margin-left:0in;&lt;br/&gt;text-align:left;direction:ltr;unicode-bidi:embed;mso-line-break-override:none;&lt;br/&gt;word-break:normal;punctuation-wrap:hanging&quot;&gt;&lt;span style=&quot;font-family: Calibri; color: black; font-weight: normal;&quot;&gt;data_in&lt;/span&gt;&lt;span style=&quot;font-family: Calibri; color: black; font-weight: normal;&quot;&gt;[n-1]&lt;/span&gt;&lt;/p&gt;" style="text;whiteSpace=wrap;html=1;fontFamily=Helvetica;fontSize=13;fontColor=default;strokeWidth=3;" vertex="1" parent="1">
          <mxGeometry x="317.03" y="329.5" width="100" height="40" as="geometry" />
        </mxCell>
        <mxCell id="yV69nBCy1edd1DYRwR0H-4" value="" style="verticalLabelPosition=bottom;verticalAlign=top;html=1;shape=mxgraph.flowchart.summing_function;strokeWidth=2;shadow=0;aspect=fixed;" vertex="1" parent="1">
          <mxGeometry x="400.03" y="338.5" width="30" height="30" as="geometry" />
        </mxCell>
        <mxCell id="yV69nBCy1edd1DYRwR0H-5" value="" style="edgeStyle=elbowEdgeStyle;elbow=vertical;strokeColor=#67AB9F;strokeWidth=2;exitX=0;exitY=0.6;exitDx=0;exitDy=0;exitPerimeter=0;rounded=1;align=center;verticalAlign=middle;fontFamily=Helvetica;fontSize=11;fontColor=default;labelBackgroundColor=default;endArrow=none;endFill=0;" edge="1" parent="1" source="yV69nBCy1edd1DYRwR0H-3">
          <mxGeometry width="100" height="100" relative="1" as="geometry">
            <mxPoint x="307.53" y="353.94000000000005" as="sourcePoint" />
            <mxPoint x="401.53" y="353.5" as="targetPoint" />
          </mxGeometry>
        </mxCell>
        <mxCell id="yV69nBCy1edd1DYRwR0H-6" value="&lt;p style=&quot;language:zh-CN;margin-top:0pt;margin-bottom:0pt;margin-left:0in;&lt;br/&gt;text-align:left;direction:ltr;unicode-bidi:embed;mso-line-break-override:none;&lt;br/&gt;word-break:normal;punctuation-wrap:hanging&quot;&gt;&lt;span style=&quot;font-family: Calibri;&quot;&gt;comp_slope&lt;/span&gt;&lt;span style=&quot;font-family: Calibri;&quot;&gt;[n-1]&lt;/span&gt;&lt;/p&gt;" style="text;whiteSpace=wrap;html=1;fontFamily=Helvetica;fontSize=13;fontColor=default;strokeWidth=3;" vertex="1" parent="1">
          <mxGeometry x="307.03" y="379.5" width="100" height="40" as="geometry" />
        </mxCell>
        <mxCell id="yV69nBCy1edd1DYRwR0H-7" value="" style="edgeStyle=elbowEdgeStyle;elbow=vertical;strokeColor=#67AB9F;strokeWidth=2;exitX=1;exitY=0.5;exitDx=0;exitDy=0;entryX=0.5;entryY=1;entryDx=0;entryDy=0;entryPerimeter=0;rounded=1;align=center;verticalAlign=middle;fontFamily=Helvetica;fontSize=11;fontColor=default;labelBackgroundColor=default;endArrow=none;endFill=0;" edge="1" parent="1" source="yV69nBCy1edd1DYRwR0H-6" target="yV69nBCy1edd1DYRwR0H-4">
          <mxGeometry width="100" height="100" relative="1" as="geometry">
            <mxPoint x="381.53" y="379.5" as="sourcePoint" />
            <mxPoint x="491.53" y="379.5" as="targetPoint" />
            <Array as="points">
              <mxPoint x="411.53" y="399.5" />
            </Array>
          </mxGeometry>
        </mxCell>
        <mxCell id="yV69nBCy1edd1DYRwR0H-8" value="" style="edgeStyle=orthogonalEdgeStyle;elbow=vertical;strokeColor=#67AB9F;strokeWidth=2;exitX=1;exitY=0.5;exitDx=0;exitDy=0;exitPerimeter=0;rounded=1;align=center;verticalAlign=middle;fontFamily=Helvetica;fontSize=11;fontColor=default;labelBackgroundColor=default;endArrow=none;endFill=0;entryX=0.175;entryY=0.75;entryDx=0;entryDy=0;entryPerimeter=0;" edge="1" parent="1" source="yV69nBCy1edd1DYRwR0H-4" target="yV69nBCy1edd1DYRwR0H-55">
          <mxGeometry width="100" height="100" relative="1" as="geometry">
            <mxPoint x="451.53" y="353.5" as="sourcePoint" />
            <mxPoint x="527.03" y="353.5" as="targetPoint" />
            <Array as="points">
              <mxPoint x="530.03" y="354" />
              <mxPoint x="530.03" y="387" />
            </Array>
          </mxGeometry>
        </mxCell>
        <mxCell id="yV69nBCy1edd1DYRwR0H-9" value="&lt;p style=&quot;language:zh-CN;margin-top:0pt;margin-bottom:0pt;margin-left:0in;&lt;br/&gt;text-align:left;direction:ltr;unicode-bidi:embed;mso-line-break-override:none;&lt;br/&gt;word-break:normal;punctuation-wrap:hanging&quot;&gt;&lt;span&gt;inv_flag&lt;/span&gt;&lt;/p&gt;" style="text;whiteSpace=wrap;html=1;fontFamily=Helvetica;fontSize=13;fontColor=default;strokeWidth=3;" vertex="1" parent="1">
          <mxGeometry x="467.03" y="329.5" width="50" height="40" as="geometry" />
        </mxCell>
        <mxCell id="yV69nBCy1edd1DYRwR0H-10" value="AND" style="shape=or;whiteSpace=wrap;html=1;strokeWidth=2;fontSize=13;shadow=0;aspect=fixed;" vertex="1" parent="1">
          <mxGeometry x="707.53" y="376" width="40" height="42.67" as="geometry" />
        </mxCell>
        <mxCell id="yV69nBCy1edd1DYRwR0H-11" value="&lt;p style=&quot;margin-top: 0pt; margin-bottom: 0pt; margin-left: 0in; direction: ltr; unicode-bidi: embed; word-break: normal;&quot;&gt;&lt;font face=&quot;等线&quot;&gt;&lt;span style=&quot;font-size: 13.3333px;&quot;&gt;WINDOW COUNTER&lt;/span&gt;&lt;/font&gt;&lt;/p&gt;&lt;p style=&quot;margin-top: 0pt; margin-bottom: 0pt; margin-left: 0in; direction: ltr; unicode-bidi: embed; word-break: normal;&quot;&gt;&lt;font face=&quot;等线&quot;&gt;&lt;span style=&quot;font-size: 13.3333px;&quot;&gt;( 8 bits )&lt;/span&gt;&lt;/font&gt;&lt;/p&gt;" style="rounded=0;whiteSpace=wrap;html=1;strokeColor=default;strokeWidth=2;align=center;verticalAlign=middle;fontFamily=Helvetica;fontSize=12;fontColor=default;fontStyle=1;fillColor=#FFFFFF;shadow=0;" vertex="1" parent="1">
          <mxGeometry x="100.03" y="630" width="165" height="40" as="geometry" />
        </mxCell>
        <mxCell id="yV69nBCy1edd1DYRwR0H-12" style="edgeStyle=orthogonalEdgeStyle;rounded=1;orthogonalLoop=1;jettySize=auto;html=1;exitX=1;exitY=0.5;exitDx=0;exitDy=0;strokeColor=#67AB9F;strokeWidth=2;align=center;verticalAlign=middle;fontFamily=Helvetica;fontSize=11;fontColor=default;labelBackgroundColor=default;endArrow=none;endFill=0;elbow=vertical;entryX=1;entryY=0;entryDx=0;entryDy=0;entryPerimeter=0;" edge="1" parent="1" source="yV69nBCy1edd1DYRwR0H-34" target="yV69nBCy1edd1DYRwR0H-25">
          <mxGeometry relative="1" as="geometry">
            <mxPoint x="466.03" y="136" as="targetPoint" />
            <mxPoint x="421.53" y="141" as="sourcePoint" />
            <Array as="points">
              <mxPoint x="488.03" y="116" />
            </Array>
          </mxGeometry>
        </mxCell>
        <mxCell id="yV69nBCy1edd1DYRwR0H-13" value="" style="rounded=1;orthogonalLoop=1;jettySize=auto;html=1;strokeColor=#67AB9F;strokeWidth=2;align=center;verticalAlign=middle;fontFamily=Helvetica;fontSize=11;fontColor=default;labelBackgroundColor=default;endArrow=none;endFill=0;elbow=vertical;exitX=1;exitY=0.5;exitDx=0;exitDy=0;exitPerimeter=0;entryX=1;entryY=0.75;entryDx=0;entryDy=0;" edge="1" parent="1" source="yV69nBCy1edd1DYRwR0H-53" target="yV69nBCy1edd1DYRwR0H-40">
          <mxGeometry relative="1" as="geometry">
            <mxPoint x="760.0299999999997" y="240.5" as="sourcePoint" />
            <mxPoint x="870.03" y="295.5" as="targetPoint" />
          </mxGeometry>
        </mxCell>
        <mxCell id="yV69nBCy1edd1DYRwR0H-14" value="data_in[n-1:0]" style="text;whiteSpace=wrap;html=1;strokeWidth=3;fontStyle=1" vertex="1" parent="1">
          <mxGeometry x="90.03" y="281" width="100" height="40" as="geometry" />
        </mxCell>
        <mxCell id="yV69nBCy1edd1DYRwR0H-15" value="" style="edgeStyle=orthogonalEdgeStyle;elbow=vertical;strokeColor=#67AB9F;strokeWidth=2;exitX=1;exitY=0.5;exitDx=0;exitDy=0;rounded=1;align=center;verticalAlign=middle;fontFamily=Helvetica;fontSize=11;fontColor=default;labelBackgroundColor=default;endArrow=none;endFill=0;entryX=0;entryY=0;entryDx=0;entryDy=0;entryPerimeter=0;" edge="1" parent="1" source="yV69nBCy1edd1DYRwR0H-36" target="yV69nBCy1edd1DYRwR0H-25">
          <mxGeometry width="100" height="100" relative="1" as="geometry">
            <mxPoint x="341.53" y="276" as="sourcePoint" />
            <mxPoint x="487.03" y="186" as="targetPoint" />
            <Array as="points">
              <mxPoint x="231.02999999999997" y="311" />
              <mxPoint x="280.03" y="311" />
              <mxPoint x="280.03" y="186" />
              <mxPoint x="488.03" y="186" />
            </Array>
          </mxGeometry>
        </mxCell>
        <mxCell id="yV69nBCy1edd1DYRwR0H-16" value="&lt;p style=&quot;language:zh-CN;margin-top:0pt;margin-bottom:0pt;margin-left:0in;&lt;br/&gt;text-align:left;direction:ltr;unicode-bidi:embed;mso-line-break-override:none;&lt;br/&gt;word-break:normal;punctuation-wrap:hanging&quot;&gt;&lt;span style=&quot;font-size: 12px;&quot;&gt;max_exchange&lt;/span&gt;&lt;/p&gt;" style="text;whiteSpace=wrap;html=1;fontFamily=Helvetica;fontSize=13;fontColor=default;strokeWidth=3;" vertex="1" parent="1">
          <mxGeometry x="95.03" y="601" width="100" height="30" as="geometry" />
        </mxCell>
        <mxCell id="yV69nBCy1edd1DYRwR0H-17" value="THRESHOLD SELECTOR" style="rounded=0;whiteSpace=wrap;html=1;strokeColor=default;strokeWidth=2;align=center;verticalAlign=middle;fontFamily=Helvetica;fontSize=12;fontColor=default;fontStyle=1;fillColor=#FFFFFF;points=[[0,0,0,0,0],[0,0.2,0,0,0],[0,0.4,0,0,0],[0,0.6,0,0,0],[0,0.8,0,0,0],[0,1,0,0,0],[0.25,0,0,0,0],[0.25,1,0,0,0],[0.5,0,0,0,0],[0.5,1,0,0,0],[0.75,0,0,0,0],[0.75,1,0,0,0],[1,0,0,0,0],[1,0.25,0,0,0],[1,0.5,0,0,0],[1,0.75,0,0,0],[1,1,0,0,0]];shadow=0;" vertex="1" parent="1">
          <mxGeometry x="240.02999999999997" y="86" width="120" height="60" as="geometry" />
        </mxCell>
        <mxCell id="yV69nBCy1edd1DYRwR0H-18" value="&lt;p style=&quot;language:zh-CN;margin-top:0pt;margin-bottom:0pt;margin-left:0in;&lt;br/&gt;text-align:left;direction:ltr;unicode-bidi:embed;mso-line-break-override:none;&lt;br/&gt;word-break:normal;punctuation-wrap:hanging&quot;&gt;&lt;span style=&quot;font-family: Calibri; background-color: transparent; color: light-dark(rgb(0, 0, 0), rgb(255, 255, 255));&quot;&gt;med-flt slope n&lt;/span&gt;&lt;/p&gt;" style="text;whiteSpace=wrap;html=1;fontFamily=Helvetica;fontSize=13;fontColor=default;strokeWidth=3;align=center;" vertex="1" parent="1">
          <mxGeometry x="100.03" y="81" width="86" height="30" as="geometry" />
        </mxCell>
        <mxCell id="yV69nBCy1edd1DYRwR0H-19" value="&lt;p style=&quot;language:zh-CN;margin-top:0pt;margin-bottom:0pt;margin-left:0in;&lt;br/&gt;text-align:left;direction:ltr;unicode-bidi:embed;mso-line-break-override:none;&lt;br/&gt;word-break:normal;punctuation-wrap:hanging&quot;&gt;&lt;font face=&quot;Calibri&quot;&gt;med-flt slope p&lt;/font&gt;&lt;/p&gt;" style="text;whiteSpace=wrap;html=1;fontFamily=Helvetica;fontSize=13;fontColor=default;strokeWidth=3;align=center;" vertex="1" parent="1">
          <mxGeometry x="96.03" y="61" width="90" height="30" as="geometry" />
        </mxCell>
        <mxCell id="yV69nBCy1edd1DYRwR0H-20" value="&lt;p style=&quot;language:zh-CN;margin-top:0pt;margin-bottom:0pt;margin-left:0in;&lt;br/&gt;text-align:left;direction:ltr;unicode-bidi:embed;mso-line-break-override:none;&lt;br/&gt;word-break:normal;punctuation-wrap:hanging&quot;&gt;&lt;span style=&quot;font-family: Calibri;&quot;&gt;comp_slope&lt;/span&gt;&lt;/p&gt;" style="text;whiteSpace=wrap;html=1;fontFamily=Helvetica;fontSize=13;fontColor=default;strokeWidth=3;align=center;" vertex="1" parent="1">
          <mxGeometry x="96.03" y="121" width="90" height="30" as="geometry" />
        </mxCell>
        <mxCell id="yV69nBCy1edd1DYRwR0H-21" style="edgeStyle=orthogonalEdgeStyle;rounded=1;orthogonalLoop=1;jettySize=auto;html=1;exitX=1;exitY=0.5;exitDx=0;exitDy=0;strokeColor=#67AB9F;strokeWidth=2;align=center;verticalAlign=middle;fontFamily=Helvetica;fontSize=11;fontColor=default;labelBackgroundColor=default;endArrow=none;endFill=0;elbow=vertical;entryX=0;entryY=0.2;entryDx=0;entryDy=0;entryPerimeter=0;" edge="1" parent="1" source="yV69nBCy1edd1DYRwR0H-19" target="yV69nBCy1edd1DYRwR0H-17">
          <mxGeometry relative="1" as="geometry">
            <mxPoint x="230.02999999999997" y="71" as="targetPoint" />
            <mxPoint x="410.03" y="106" as="sourcePoint" />
          </mxGeometry>
        </mxCell>
        <mxCell id="yV69nBCy1edd1DYRwR0H-22" style="edgeStyle=orthogonalEdgeStyle;rounded=1;orthogonalLoop=1;jettySize=auto;html=1;strokeColor=#67AB9F;strokeWidth=2;align=center;verticalAlign=middle;fontFamily=Helvetica;fontSize=11;fontColor=default;labelBackgroundColor=default;endArrow=none;endFill=0;elbow=vertical;entryX=0;entryY=0.4;entryDx=0;entryDy=0;entryPerimeter=0;" edge="1" parent="1" source="yV69nBCy1edd1DYRwR0H-18" target="yV69nBCy1edd1DYRwR0H-17">
          <mxGeometry relative="1" as="geometry">
            <mxPoint x="254.02999999999997" y="131" as="targetPoint" />
            <mxPoint x="200.02999999999997" y="116" as="sourcePoint" />
          </mxGeometry>
        </mxCell>
        <mxCell id="yV69nBCy1edd1DYRwR0H-23" style="edgeStyle=orthogonalEdgeStyle;rounded=1;orthogonalLoop=1;jettySize=auto;html=1;strokeColor=#67AB9F;strokeWidth=2;align=center;verticalAlign=middle;fontFamily=Helvetica;fontSize=11;fontColor=default;labelBackgroundColor=default;endArrow=none;endFill=0;elbow=vertical;entryX=0;entryY=0.6;entryDx=0;entryDy=0;entryPerimeter=0;" edge="1" parent="1" source="yV69nBCy1edd1DYRwR0H-20" target="yV69nBCy1edd1DYRwR0H-17">
          <mxGeometry relative="1" as="geometry">
            <mxPoint x="264.03" y="136" as="targetPoint" />
            <mxPoint x="210.02999999999997" y="136" as="sourcePoint" />
          </mxGeometry>
        </mxCell>
        <mxCell id="yV69nBCy1edd1DYRwR0H-24" value="" style="group;strokeWidth=2;shadow=0;aspect=fixed;" vertex="1" connectable="0" parent="1">
          <mxGeometry x="488.03" y="136" width="30" height="30" as="geometry" />
        </mxCell>
        <mxCell id="yV69nBCy1edd1DYRwR0H-25" value="" style="verticalLabelPosition=bottom;outlineConnect=0;align=center;dashed=0;html=1;verticalAlign=top;shape=mxgraph.pid.compressors.compressor;rotation=-90;strokeWidth=3;points=[[0,0,0,0,0],[0,0.5,0,0,0],[0.5,0,0,0,0],[0.5,1,0,0,0],[1,0,0,0,0],[1,0.5,0,0,0]];" vertex="1" parent="yV69nBCy1edd1DYRwR0H-24">
          <mxGeometry width="30" height="30" as="geometry" />
        </mxCell>
        <mxCell id="yV69nBCy1edd1DYRwR0H-26" value="&lt;font style=&quot;font-size: 31px;&quot;&gt;&amp;lt;&lt;/font&gt;" style="ellipse;whiteSpace=wrap;html=1;strokeWidth=3;" vertex="1" parent="yV69nBCy1edd1DYRwR0H-24">
          <mxGeometry width="30" height="30" as="geometry" />
        </mxCell>
        <mxCell id="yV69nBCy1edd1DYRwR0H-27" style="edgeStyle=orthogonalEdgeStyle;rounded=1;orthogonalLoop=1;jettySize=auto;html=1;exitX=0.175;exitY=0.25;exitDx=0;exitDy=0;exitPerimeter=0;entryX=1;entryY=0.5;entryDx=0;entryDy=0;strokeColor=#67AB9F;strokeWidth=2;align=center;verticalAlign=middle;fontFamily=Helvetica;fontSize=11;fontColor=default;labelBackgroundColor=default;elbow=vertical;endArrow=none;endFill=0;" edge="1" parent="1" source="yV69nBCy1edd1DYRwR0H-53" target="yV69nBCy1edd1DYRwR0H-26">
          <mxGeometry relative="1" as="geometry">
            <mxPoint x="566.0299999999997" y="160" as="sourcePoint" />
            <Array as="points">
              <mxPoint x="714.03" y="270" />
              <mxPoint x="690.03" y="270" />
              <mxPoint x="690.03" y="180" />
              <mxPoint x="540.03" y="180" />
              <mxPoint x="540.03" y="151" />
            </Array>
          </mxGeometry>
        </mxCell>
        <mxCell id="yV69nBCy1edd1DYRwR0H-28" value="" style="group;strokeWidth=2;shadow=0;aspect=fixed;" vertex="1" connectable="0" parent="1">
          <mxGeometry x="488.03" y="231" width="30" height="30" as="geometry" />
        </mxCell>
        <mxCell id="yV69nBCy1edd1DYRwR0H-29" value="" style="verticalLabelPosition=bottom;outlineConnect=0;align=center;dashed=0;html=1;verticalAlign=top;shape=mxgraph.pid.compressors.compressor;rotation=-90;strokeWidth=3;points=[[0,0,0,0,0],[0,0.5,0,0,0],[0.5,0,0,0,0],[0.5,1,0,0,0],[1,0,0,0,0],[1,0.5,0,0,0]];" vertex="1" parent="yV69nBCy1edd1DYRwR0H-28">
          <mxGeometry width="30" height="30" as="geometry" />
        </mxCell>
        <mxCell id="yV69nBCy1edd1DYRwR0H-30" value="&lt;font style=&quot;font-size: 31px;&quot;&gt;&amp;gt;&lt;/font&gt;" style="ellipse;whiteSpace=wrap;html=1;strokeWidth=3;" vertex="1" parent="yV69nBCy1edd1DYRwR0H-28">
          <mxGeometry width="30" height="30" as="geometry" />
        </mxCell>
        <mxCell id="yV69nBCy1edd1DYRwR0H-31" style="edgeStyle=orthogonalEdgeStyle;rounded=1;orthogonalLoop=1;jettySize=auto;html=1;entryX=1;entryY=0.5;entryDx=0;entryDy=0;strokeColor=#67AB9F;strokeWidth=2;align=center;verticalAlign=middle;fontFamily=Helvetica;fontSize=11;fontColor=default;labelBackgroundColor=default;elbow=vertical;endArrow=none;endFill=0;exitX=0.175;exitY=0.75;exitDx=0;exitDy=0;exitPerimeter=0;" edge="1" parent="1" source="yV69nBCy1edd1DYRwR0H-53" target="yV69nBCy1edd1DYRwR0H-30">
          <mxGeometry relative="1" as="geometry">
            <mxPoint x="580.03" y="236" as="sourcePoint" />
            <mxPoint x="546.03" y="176" as="targetPoint" />
            <Array as="points">
              <mxPoint x="680.03" y="293" />
              <mxPoint x="680.03" y="246" />
            </Array>
          </mxGeometry>
        </mxCell>
        <mxCell id="yV69nBCy1edd1DYRwR0H-32" value="&lt;p style=&quot;language:zh-CN;margin-top:0pt;margin-bottom:0pt;margin-left:0in;&lt;br/&gt;text-align:left;direction:ltr;unicode-bidi:embed;mso-line-break-override:none;&lt;br/&gt;word-break:normal;punctuation-wrap:hanging&quot;&gt;&lt;span style=&quot;font-family: Calibri;&quot;&gt;comp_slope&lt;/span&gt;&lt;/p&gt;" style="text;whiteSpace=wrap;html=1;fontFamily=Helvetica;fontSize=13;fontColor=default;strokeWidth=3;" vertex="1" parent="1">
          <mxGeometry x="300.03" y="246" width="79" height="30" as="geometry" />
        </mxCell>
        <mxCell id="yV69nBCy1edd1DYRwR0H-33" value="" style="edgeStyle=orthogonalEdgeStyle;elbow=vertical;strokeColor=#67AB9F;strokeWidth=2;exitX=1;exitY=0.5;exitDx=0;exitDy=0;entryX=0;entryY=0;entryDx=0;entryDy=0;entryPerimeter=0;rounded=1;align=center;verticalAlign=middle;fontFamily=Helvetica;fontSize=11;fontColor=default;labelBackgroundColor=default;endArrow=none;endFill=0;" edge="1" parent="1" source="yV69nBCy1edd1DYRwR0H-37" target="yV69nBCy1edd1DYRwR0H-29">
          <mxGeometry width="100" height="100" relative="1" as="geometry">
            <mxPoint x="356.03" y="236" as="sourcePoint" />
            <mxPoint x="487.03" y="236" as="targetPoint" />
            <Array as="points">
              <mxPoint x="488.03" y="276" />
            </Array>
          </mxGeometry>
        </mxCell>
        <mxCell id="yV69nBCy1edd1DYRwR0H-34" value="ABS" style="ellipse;whiteSpace=wrap;html=1;aspect=fixed;fontStyle=1;strokeWidth=2;shadow=0;" vertex="1" parent="1">
          <mxGeometry x="400.03" y="101" width="30" height="30" as="geometry" />
        </mxCell>
        <mxCell id="yV69nBCy1edd1DYRwR0H-35" style="edgeStyle=orthogonalEdgeStyle;rounded=1;orthogonalLoop=1;jettySize=auto;html=1;strokeColor=#67AB9F;strokeWidth=2;align=center;verticalAlign=middle;fontFamily=Helvetica;fontSize=11;fontColor=default;labelBackgroundColor=default;endArrow=none;endFill=0;elbow=vertical;entryX=0;entryY=0.5;entryDx=0;entryDy=0;" edge="1" parent="1" source="yV69nBCy1edd1DYRwR0H-17" target="yV69nBCy1edd1DYRwR0H-34">
          <mxGeometry relative="1" as="geometry">
            <mxPoint x="396.03" y="116" as="targetPoint" />
            <mxPoint x="466.03" y="116" as="sourcePoint" />
            <Array as="points" />
          </mxGeometry>
        </mxCell>
        <mxCell id="yV69nBCy1edd1DYRwR0H-36" value="ABS" style="ellipse;whiteSpace=wrap;html=1;aspect=fixed;fontStyle=1;strokeWidth=2;shadow=0;" vertex="1" parent="1">
          <mxGeometry x="201.02999999999997" y="295.5" width="30" height="30" as="geometry" />
        </mxCell>
        <mxCell id="yV69nBCy1edd1DYRwR0H-37" value="ABS" style="ellipse;whiteSpace=wrap;html=1;aspect=fixed;fontStyle=1;strokeWidth=2;shadow=0;" vertex="1" parent="1">
          <mxGeometry x="400.03" y="261" width="30" height="30" as="geometry" />
        </mxCell>
        <mxCell id="yV69nBCy1edd1DYRwR0H-38" value="" style="edgeStyle=orthogonalEdgeStyle;elbow=vertical;strokeColor=#000000;strokeWidth=4;entryX=0;entryY=0.5;entryDx=0;entryDy=0;rounded=1;align=center;verticalAlign=middle;fontFamily=Helvetica;fontSize=11;fontColor=default;labelBackgroundColor=default;endArrow=block;endFill=1;" edge="1" parent="1" target="yV69nBCy1edd1DYRwR0H-36">
          <mxGeometry width="100" height="100" relative="1" as="geometry">
            <mxPoint x="40.03" y="311" as="sourcePoint" />
            <mxPoint x="493.03" y="320.5" as="targetPoint" />
            <Array as="points">
              <mxPoint x="201.02999999999997" y="310" />
            </Array>
          </mxGeometry>
        </mxCell>
        <mxCell id="yV69nBCy1edd1DYRwR0H-39" value="" style="edgeStyle=orthogonalEdgeStyle;elbow=vertical;strokeColor=#67AB9F;strokeWidth=2;entryX=0;entryY=0.5;entryDx=0;entryDy=0;rounded=1;align=center;verticalAlign=middle;fontFamily=Helvetica;fontSize=11;fontColor=default;labelBackgroundColor=default;endArrow=none;endFill=0;exitX=0;exitY=1;exitDx=0;exitDy=0;" edge="1" parent="1" source="yV69nBCy1edd1DYRwR0H-32" target="yV69nBCy1edd1DYRwR0H-37">
          <mxGeometry width="100" height="100" relative="1" as="geometry">
            <mxPoint x="296.03" y="281" as="sourcePoint" />
            <mxPoint x="446.03" y="231" as="targetPoint" />
            <Array as="points">
              <mxPoint x="300.03" y="276" />
            </Array>
          </mxGeometry>
        </mxCell>
        <mxCell id="yV69nBCy1edd1DYRwR0H-40" value="slope rate valid" style="text;whiteSpace=wrap;html=1;strokeWidth=3;" vertex="1" parent="1">
          <mxGeometry x="774.03" y="260.5" width="90" height="30" as="geometry" />
        </mxCell>
        <mxCell id="yV69nBCy1edd1DYRwR0H-41" value="" style="shape=image;verticalLabelPosition=bottom;labelBackgroundColor=default;verticalAlign=top;aspect=fixed;imageAspect=0;image=data:image/png,iVBORw0KGgoAAAANSUhEUgAAACoAAAA5CAMAAAEAWHnKAAAAAXNSR0IArs4c6QAAAARnQU1BAACxjwv8YQUAAAA/UExURQAAAAAAAAAAAAAAAAAAAAAAAAAAAAAAAAAAAAAAAAAAAAAAAAAAAAAAAAAAAAAAAAAAAAAAAAAAAAAAAAAAALMlgi8AAAAUdFJOUwAIEIcglzCfOKdAt1jPaHDf54Dv4vA5JAAAAAlwSFlzAAAXEQAAFxEByibzPwAAAQdJREFUOE/tlNsOgjAQRAfEu1WE+f9vNe1KW7YrQgIPJs5DszkMs2VJC2hR1l2qI0smrSaswdCnUrA8mxIZoymvC40lwJiSquVyQ6RL4V0sO8JJdc9a5/0SznZsVKhitbb01zeOpPytXE9PFevIPk4gY2MCoKU9ZNq87GRbLVYZ7Gd00wB4kKcSlROqA2wVFawD/OCKAA8vRQDJA2oVEKCWCWFsCcBxKT5r9oGaCVtAXC0I7DX4ax01D1deSlreZJ+DkY5iEhWHY6z6nWjdiVrd4Jxunxm/tRdjf/DbmGwfjV61fpppZJxU+PA5xuFGauddvDL9Lcxt2LGmhman/oJxyfCr60zjC0BSF19ImznkAAAAAElFTkSuQmCC;strokeWidth=3;" vertex="1" parent="1">
          <mxGeometry x="861.03" y="365" width="21" height="28.5" as="geometry" />
        </mxCell>
        <mxCell id="yV69nBCy1edd1DYRwR0H-42" value="" style="rounded=1;orthogonalLoop=1;jettySize=auto;html=1;strokeColor=#67AB9F;strokeWidth=2;align=center;verticalAlign=middle;fontFamily=Helvetica;fontSize=11;fontColor=default;labelBackgroundColor=default;endArrow=none;endFill=0;elbow=vertical;exitX=1;exitY=0.5;exitDx=0;exitDy=0;exitPerimeter=0;entryX=1;entryY=0.75;entryDx=0;entryDy=0;" edge="1" parent="1" source="yV69nBCy1edd1DYRwR0H-10" target="yV69nBCy1edd1DYRwR0H-51">
          <mxGeometry relative="1" as="geometry">
            <mxPoint x="778.5300000000002" y="414.5" as="sourcePoint" />
            <mxPoint x="829.03" y="416" as="targetPoint" />
          </mxGeometry>
        </mxCell>
        <mxCell id="yV69nBCy1edd1DYRwR0H-43" value="" style="group;strokeWidth=2;shadow=0;aspect=fixed;" vertex="1" connectable="0" parent="1">
          <mxGeometry x="488.03" y="426" width="30" height="30" as="geometry" />
        </mxCell>
        <mxCell id="yV69nBCy1edd1DYRwR0H-44" value="" style="verticalLabelPosition=bottom;outlineConnect=0;align=center;dashed=0;html=1;verticalAlign=top;shape=mxgraph.pid.compressors.compressor;rotation=-90;strokeWidth=3;points=[[0,0,0,0,0],[0,0.5,0,0,0],[0.5,0,0,0,0],[0.5,1,0,0,0],[1,0,0,0,0],[1,0.5,0,0,0]];" vertex="1" parent="yV69nBCy1edd1DYRwR0H-43">
          <mxGeometry width="30" height="30" as="geometry" />
        </mxCell>
        <mxCell id="yV69nBCy1edd1DYRwR0H-45" value="&lt;font style=&quot;font-size: 31px;&quot;&gt;&amp;gt;&lt;/font&gt;" style="ellipse;whiteSpace=wrap;html=1;strokeWidth=3;" vertex="1" parent="yV69nBCy1edd1DYRwR0H-43">
          <mxGeometry width="30" height="30" as="geometry" />
        </mxCell>
        <mxCell id="yV69nBCy1edd1DYRwR0H-46" style="edgeStyle=elbowEdgeStyle;rounded=1;orthogonalLoop=1;jettySize=auto;html=1;entryX=1;entryY=0.5;entryDx=0;entryDy=0;strokeColor=#67AB9F;strokeWidth=2;align=center;verticalAlign=middle;fontFamily=Helvetica;fontSize=11;fontColor=default;labelBackgroundColor=default;endArrow=none;endFill=0;exitX=0;exitY=0.75;exitDx=0;exitDy=0;exitPerimeter=0;" edge="1" parent="1" source="yV69nBCy1edd1DYRwR0H-10" target="yV69nBCy1edd1DYRwR0H-45">
          <mxGeometry relative="1" as="geometry">
            <mxPoint x="718.03" y="356" as="sourcePoint" />
            <mxPoint x="694.03" y="311" as="targetPoint" />
            <Array as="points">
              <mxPoint x="670.03" y="430" />
            </Array>
          </mxGeometry>
        </mxCell>
        <mxCell id="yV69nBCy1edd1DYRwR0H-47" value="temp_max_slope" style="text;whiteSpace=wrap;html=1;strokeWidth=3;" vertex="1" parent="1">
          <mxGeometry x="289.53" y="442" width="120" height="30" as="geometry" />
        </mxCell>
        <mxCell id="yV69nBCy1edd1DYRwR0H-48" value="" style="edgeStyle=elbowEdgeStyle;strokeColor=#67AB9F;strokeWidth=2;exitX=1;exitY=0.5;exitDx=0;exitDy=0;rounded=1;align=center;verticalAlign=middle;fontFamily=Helvetica;fontSize=11;fontColor=default;labelBackgroundColor=default;endArrow=none;endFill=0;entryX=0;entryY=0;entryDx=0;entryDy=0;entryPerimeter=0;" edge="1" parent="1" source="yV69nBCy1edd1DYRwR0H-49" target="yV69nBCy1edd1DYRwR0H-44">
          <mxGeometry width="100" height="100" relative="1" as="geometry">
            <mxPoint x="384.03" y="481" as="sourcePoint" />
            <mxPoint x="518.03" y="486" as="targetPoint" />
          </mxGeometry>
        </mxCell>
        <mxCell id="yV69nBCy1edd1DYRwR0H-49" value="ABS" style="ellipse;whiteSpace=wrap;html=1;aspect=fixed;fontStyle=1;strokeWidth=2;shadow=0;" vertex="1" parent="1">
          <mxGeometry x="400.03" y="457" width="30" height="30" as="geometry" />
        </mxCell>
        <mxCell id="yV69nBCy1edd1DYRwR0H-50" value="" style="edgeStyle=elbowEdgeStyle;strokeColor=#67AB9F;strokeWidth=2;entryX=0;entryY=0.5;entryDx=0;entryDy=0;rounded=1;align=center;verticalAlign=middle;fontFamily=Helvetica;fontSize=11;fontColor=default;labelBackgroundColor=default;endArrow=none;endFill=0;exitX=0;exitY=1;exitDx=0;exitDy=0;" edge="1" parent="1" source="yV69nBCy1edd1DYRwR0H-47" target="yV69nBCy1edd1DYRwR0H-49">
          <mxGeometry width="100" height="100" relative="1" as="geometry">
            <mxPoint x="313.53" y="482" as="sourcePoint" />
            <mxPoint x="463.53" y="432" as="targetPoint" />
          </mxGeometry>
        </mxCell>
        <mxCell id="yV69nBCy1edd1DYRwR0H-51" value="max_exchange" style="text;whiteSpace=wrap;html=1;strokeWidth=3;" vertex="1" parent="1">
          <mxGeometry x="776.03" y="372" width="90" height="34" as="geometry" />
        </mxCell>
        <mxCell id="yV69nBCy1edd1DYRwR0H-52" value="" style="edgeStyle=orthogonalEdgeStyle;elbow=vertical;strokeColor=#67AB9F;strokeWidth=2;exitX=1;exitY=0.5;exitDx=0;exitDy=0;entryX=1;entryY=0;entryDx=0;entryDy=0;entryPerimeter=0;rounded=1;align=center;verticalAlign=middle;fontFamily=Helvetica;fontSize=11;fontColor=default;labelBackgroundColor=default;endArrow=none;endFill=0;" edge="1" parent="1" source="yV69nBCy1edd1DYRwR0H-36" target="yV69nBCy1edd1DYRwR0H-29">
          <mxGeometry width="100" height="100" relative="1" as="geometry">
            <mxPoint x="460.03" y="191" as="sourcePoint" />
            <mxPoint x="497.03" y="191" as="targetPoint" />
            <Array as="points">
              <mxPoint x="280.03" y="311" />
              <mxPoint x="280.03" y="211" />
            </Array>
          </mxGeometry>
        </mxCell>
        <mxCell id="yV69nBCy1edd1DYRwR0H-53" value="OR" style="shape=xor;whiteSpace=wrap;html=1;strokeWidth=2;shadow=0;aspect=fixed;fontSize=13;" vertex="1" parent="1">
          <mxGeometry x="707.53" y="264" width="40" height="38.26" as="geometry" />
        </mxCell>
        <mxCell id="yV69nBCy1edd1DYRwR0H-54" style="edgeStyle=orthogonalEdgeStyle;rounded=1;orthogonalLoop=1;jettySize=auto;html=1;exitX=0.175;exitY=0.25;exitDx=0;exitDy=0;exitPerimeter=0;entryX=1;entryY=0.5;entryDx=0;entryDy=0;strokeColor=#67AB9F;strokeWidth=2;align=center;verticalAlign=middle;fontFamily=Helvetica;fontSize=11;fontColor=default;labelBackgroundColor=default;elbow=vertical;endArrow=none;endFill=0;" edge="1" parent="1" source="yV69nBCy1edd1DYRwR0H-55" target="yV69nBCy1edd1DYRwR0H-30">
          <mxGeometry relative="1" as="geometry">
            <mxPoint x="527.0299999999997" y="322" as="sourcePoint" />
            <mxPoint x="456.03" y="323" as="targetPoint" />
            <Array as="points">
              <mxPoint x="540.03" y="368" />
              <mxPoint x="540.03" y="246" />
            </Array>
          </mxGeometry>
        </mxCell>
        <mxCell id="yV69nBCy1edd1DYRwR0H-55" value="OR" style="shape=xor;whiteSpace=wrap;html=1;strokeWidth=2;shadow=0;aspect=fixed;fontSize=13;" vertex="1" parent="1">
          <mxGeometry x="587.03" y="358" width="40" height="38.26" as="geometry" />
        </mxCell>
        <mxCell id="yV69nBCy1edd1DYRwR0H-56" style="edgeStyle=orthogonalEdgeStyle;rounded=1;orthogonalLoop=1;jettySize=auto;html=1;entryX=1;entryY=0.5;entryDx=0;entryDy=0;strokeColor=#67AB9F;strokeWidth=2;align=center;verticalAlign=middle;fontFamily=Helvetica;fontSize=11;fontColor=default;labelBackgroundColor=default;elbow=vertical;endArrow=none;endFill=0;entryPerimeter=0;exitX=0;exitY=0.25;exitDx=0;exitDy=0;exitPerimeter=0;" edge="1" parent="1" source="yV69nBCy1edd1DYRwR0H-10" target="yV69nBCy1edd1DYRwR0H-55">
          <mxGeometry relative="1" as="geometry">
            <mxPoint x="699.03" y="367.5" as="sourcePoint" />
            <mxPoint x="577.03" y="507.5" as="targetPoint" />
            <Array as="points">
              <mxPoint x="679.03" y="387" />
              <mxPoint x="679.03" y="376" />
              <mxPoint x="627.03" y="376" />
            </Array>
          </mxGeometry>
        </mxCell>
        <mxCell id="yV69nBCy1edd1DYRwR0H-57" value="&lt;p style=&quot;margin-top: 0pt; margin-bottom: 0pt; margin-left: 0in; direction: ltr; unicode-bidi: embed; word-break: normal;&quot;&gt;&lt;font face=&quot;等线&quot;&gt;&lt;span style=&quot;font-size: 13.3333px;&quot;&gt;LOCATION REGISTER&lt;/span&gt;&lt;/font&gt;&lt;/p&gt;" style="rounded=0;whiteSpace=wrap;html=1;strokeColor=default;strokeWidth=2;align=center;verticalAlign=middle;fontFamily=Helvetica;fontSize=12;fontColor=default;fontStyle=1;fillColor=#FFFFFF;shadow=0;" vertex="1" parent="1">
          <mxGeometry x="100.53" y="556" width="165" height="40" as="geometry" />
        </mxCell>
        <mxCell id="yV69nBCy1edd1DYRwR0H-58" style="edgeStyle=elbowEdgeStyle;rounded=1;orthogonalLoop=1;jettySize=auto;html=1;exitX=0.5;exitY=0;exitDx=0;exitDy=0;entryX=0.5;entryY=1;entryDx=0;entryDy=0;strokeColor=#67AB9F;strokeWidth=2;align=center;verticalAlign=middle;fontFamily=Helvetica;fontSize=11;fontColor=default;labelBackgroundColor=default;endArrow=classic;endFill=1;" edge="1" parent="1" source="yV69nBCy1edd1DYRwR0H-11" target="yV69nBCy1edd1DYRwR0H-57">
          <mxGeometry relative="1" as="geometry">
            <mxPoint x="54.03" y="640" as="sourcePoint" />
            <mxPoint x="-14.969999999999999" y="667" as="targetPoint" />
          </mxGeometry>
        </mxCell>
        <mxCell id="yV69nBCy1edd1DYRwR0H-59" value="" style="verticalLabelPosition=bottom;verticalAlign=top;html=1;shape=mxgraph.flowchart.summing_function;strokeWidth=2;shadow=0;aspect=fixed;" vertex="1" parent="1">
          <mxGeometry x="295.53" y="561" width="30" height="30" as="geometry" />
        </mxCell>
        <mxCell id="yV69nBCy1edd1DYRwR0H-60" style="edgeStyle=elbowEdgeStyle;rounded=1;orthogonalLoop=1;jettySize=auto;html=1;exitX=0;exitY=0.5;exitDx=0;exitDy=0;exitPerimeter=0;entryX=1;entryY=0.5;entryDx=0;entryDy=0;strokeColor=#67AB9F;strokeWidth=2;align=center;verticalAlign=middle;fontFamily=Helvetica;fontSize=11;fontColor=default;labelBackgroundColor=default;endArrow=none;endFill=0;" edge="1" parent="1" source="yV69nBCy1edd1DYRwR0H-59" target="yV69nBCy1edd1DYRwR0H-57">
          <mxGeometry relative="1" as="geometry">
            <mxPoint x="439.03" y="670" as="sourcePoint" />
            <mxPoint x="348.03" y="670" as="targetPoint" />
          </mxGeometry>
        </mxCell>
        <mxCell id="yV69nBCy1edd1DYRwR0H-61" value="" style="group;strokeWidth=2;shadow=0;aspect=fixed;" vertex="1" connectable="0" parent="1">
          <mxGeometry x="400.03" y="585" width="30" height="30" as="geometry" />
        </mxCell>
        <mxCell id="yV69nBCy1edd1DYRwR0H-62" value="" style="verticalLabelPosition=bottom;outlineConnect=0;align=center;dashed=0;html=1;verticalAlign=top;shape=mxgraph.pid.compressors.compressor;rotation=-90;strokeWidth=3;points=[[0,0,0,0,0],[0,0.5,0,0,0],[0.5,0,0,0,0],[0.5,1,0,0,0],[1,0,0,0,0],[1,0.5,0,0,0]];" vertex="1" parent="yV69nBCy1edd1DYRwR0H-61">
          <mxGeometry width="30" height="30" as="geometry" />
        </mxCell>
        <mxCell id="yV69nBCy1edd1DYRwR0H-63" value="&lt;font style=&quot;font-size: 31px;&quot;&gt;&amp;gt;&lt;/font&gt;" style="ellipse;whiteSpace=wrap;html=1;strokeWidth=3;" vertex="1" parent="yV69nBCy1edd1DYRwR0H-61">
          <mxGeometry width="30" height="30" as="geometry" />
        </mxCell>
        <mxCell id="yV69nBCy1edd1DYRwR0H-64" style="edgeStyle=elbowEdgeStyle;rounded=1;orthogonalLoop=1;jettySize=auto;html=1;exitX=1;exitY=0.5;exitDx=0;exitDy=0;exitPerimeter=0;entryX=1;entryY=0;entryDx=0;entryDy=0;strokeColor=#67AB9F;strokeWidth=2;align=center;verticalAlign=middle;fontFamily=Helvetica;fontSize=11;fontColor=default;labelBackgroundColor=default;endArrow=none;endFill=0;entryPerimeter=0;" edge="1" parent="1" source="yV69nBCy1edd1DYRwR0H-59" target="yV69nBCy1edd1DYRwR0H-62">
          <mxGeometry relative="1" as="geometry">
            <mxPoint x="349.53" y="720" as="sourcePoint" />
            <mxPoint x="258.53" y="720" as="targetPoint" />
            <Array as="points">
              <mxPoint x="370.03" y="580" />
            </Array>
          </mxGeometry>
        </mxCell>
        <mxCell id="yV69nBCy1edd1DYRwR0H-65" style="edgeStyle=elbowEdgeStyle;rounded=1;orthogonalLoop=1;jettySize=auto;html=1;exitX=1;exitY=0.5;exitDx=0;exitDy=0;entryX=0;entryY=0;entryDx=0;entryDy=0;strokeColor=#67AB9F;strokeWidth=2;align=center;verticalAlign=middle;fontFamily=Helvetica;fontSize=11;fontColor=default;labelBackgroundColor=default;endArrow=none;endFill=0;entryPerimeter=0;" edge="1" parent="1" source="yV69nBCy1edd1DYRwR0H-11" target="yV69nBCy1edd1DYRwR0H-62">
          <mxGeometry relative="1" as="geometry">
            <mxPoint x="428.03" y="740" as="sourcePoint" />
            <mxPoint x="455.03" y="720" as="targetPoint" />
            <Array as="points">
              <mxPoint x="370.03" y="630" />
            </Array>
          </mxGeometry>
        </mxCell>
        <mxCell id="yV69nBCy1edd1DYRwR0H-66" value="" style="shape=image;verticalLabelPosition=bottom;labelBackgroundColor=default;verticalAlign=top;aspect=fixed;imageAspect=0;image=data:image/png,iVBORw0KGgoAAAANSUhEUgAAACoAAAA5CAMAAAEAWHnKAAAAAXNSR0IArs4c6QAAAARnQU1BAACxjwv8YQUAAAA/UExURQAAAAAAAAAAAAAAAAAAAAAAAAAAAAAAAAAAAAAAAAAAAAAAAAAAAAAAAAAAAAAAAAAAAAAAAAAAAAAAAAAAALMlgi8AAAAUdFJOUwAIEIcglzCfOKdAt1jPaHDf54Dv4vA5JAAAAAlwSFlzAAAXEQAAFxEByibzPwAAAQdJREFUOE/tlNsOgjAQRAfEu1WE+f9vNe1KW7YrQgIPJs5DszkMs2VJC2hR1l2qI0smrSaswdCnUrA8mxIZoymvC40lwJiSquVyQ6RL4V0sO8JJdc9a5/0SznZsVKhitbb01zeOpPytXE9PFevIPk4gY2MCoKU9ZNq87GRbLVYZ7Gd00wB4kKcSlROqA2wVFawD/OCKAA8vRQDJA2oVEKCWCWFsCcBxKT5r9oGaCVtAXC0I7DX4ax01D1deSlreZJ+DkY5iEhWHY6z6nWjdiVrd4Jxunxm/tRdjf/DbmGwfjV61fpppZJxU+PA5xuFGauddvDL9Lcxt2LGmhman/oJxyfCr60zjC0BSF19ImznkAAAAAElFTkSuQmCC;rotation=90;strokeWidth=3;" vertex="1" parent="1">
          <mxGeometry x="75.03" y="602.5" width="21" height="28.5" as="geometry" />
        </mxCell>
        <mxCell id="yV69nBCy1edd1DYRwR0H-67" value="" style="edgeStyle=orthogonalEdgeStyle;rounded=1;orthogonalLoop=1;jettySize=auto;html=1;strokeColor=#67AB9F;strokeWidth=2;align=center;verticalAlign=middle;fontFamily=Helvetica;fontSize=11;fontColor=default;labelBackgroundColor=default;endArrow=none;endFill=0;elbow=vertical;exitX=1.065;exitY=0.482;exitDx=0;exitDy=0;exitPerimeter=0;entryX=0;entryY=0.25;entryDx=0;entryDy=0;entryPerimeter=0;" edge="1" parent="1" source="yV69nBCy1edd1DYRwR0H-63" target="yV69nBCy1edd1DYRwR0H-72">
          <mxGeometry relative="1" as="geometry">
            <mxPoint x="420.53" y="609.5" as="sourcePoint" />
            <mxPoint x="512.53" y="609.5" as="targetPoint" />
            <Array as="points">
              <mxPoint x="563.03" y="600" />
            </Array>
          </mxGeometry>
        </mxCell>
        <mxCell id="yV69nBCy1edd1DYRwR0H-68" value="win_overflow" style="text;whiteSpace=wrap;html=1;strokeWidth=3;" vertex="1" parent="1">
          <mxGeometry x="775.03" y="586" width="90" height="24" as="geometry" />
        </mxCell>
        <mxCell id="yV69nBCy1edd1DYRwR0H-69" style="edgeStyle=elbowEdgeStyle;rounded=1;orthogonalLoop=1;jettySize=auto;html=1;strokeColor=#67AB9F;strokeWidth=2;align=center;verticalAlign=middle;fontFamily=Helvetica;fontSize=11;fontColor=default;labelBackgroundColor=default;endArrow=none;endFill=0;entryX=1;entryY=0.5;entryDx=0;entryDy=0;exitX=0;exitY=0.5;exitDx=0;exitDy=0;exitPerimeter=0;" edge="1" parent="1" source="yV69nBCy1edd1DYRwR0H-72" target="yV69nBCy1edd1DYRwR0H-88">
          <mxGeometry relative="1" as="geometry">
            <mxPoint x="443.53" y="629" as="targetPoint" />
            <Array as="points">
              <mxPoint x="530.03" y="620" />
            </Array>
          </mxGeometry>
        </mxCell>
        <mxCell id="yV69nBCy1edd1DYRwR0H-70" style="edgeStyle=elbowEdgeStyle;rounded=1;orthogonalLoop=1;jettySize=auto;html=1;exitX=0;exitY=0.75;exitDx=0;exitDy=0;exitPerimeter=0;strokeColor=#67AB9F;strokeWidth=2;align=center;verticalAlign=middle;fontFamily=Helvetica;fontSize=11;fontColor=default;labelBackgroundColor=default;endArrow=none;endFill=0;entryX=0;entryY=1;entryDx=0;entryDy=0;" edge="1" parent="1" source="yV69nBCy1edd1DYRwR0H-72" target="yV69nBCy1edd1DYRwR0H-86">
          <mxGeometry relative="1" as="geometry">
            <mxPoint x="437.5300000000001" y="659.1914893617021" as="targetPoint" />
            <mxPoint x="557.53" y="631.0025" as="sourcePoint" />
            <Array as="points">
              <mxPoint x="540.03" y="640" />
            </Array>
          </mxGeometry>
        </mxCell>
        <mxCell id="yV69nBCy1edd1DYRwR0H-71" style="edgeStyle=orthogonalEdgeStyle;rounded=1;orthogonalLoop=1;jettySize=auto;html=1;exitX=1;exitY=0.5;exitDx=0;exitDy=0;exitPerimeter=0;strokeColor=#67AB9F;strokeWidth=2;align=center;verticalAlign=middle;fontFamily=Helvetica;fontSize=11;fontColor=default;labelBackgroundColor=default;elbow=vertical;endArrow=none;endFill=0;entryX=1;entryY=1;entryDx=0;entryDy=0;" edge="1" parent="1" source="yV69nBCy1edd1DYRwR0H-72" target="yV69nBCy1edd1DYRwR0H-68">
          <mxGeometry relative="1" as="geometry">
            <mxPoint x="865.53" y="629" as="targetPoint" />
            <Array as="points">
              <mxPoint x="690.03" y="610" />
              <mxPoint x="867.03" y="610" />
            </Array>
          </mxGeometry>
        </mxCell>
        <mxCell id="yV69nBCy1edd1DYRwR0H-72" value="AND" style="shape=or;whiteSpace=wrap;html=1;strokeWidth=2;fontSize=13;shadow=0;aspect=fixed;" vertex="1" parent="1">
          <mxGeometry x="563.53" y="589" width="40" height="42.67" as="geometry" />
        </mxCell>
        <mxCell id="yV69nBCy1edd1DYRwR0H-73" style="edgeStyle=orthogonalEdgeStyle;rounded=1;orthogonalLoop=1;jettySize=auto;html=1;exitX=1;exitY=0.25;exitDx=0;exitDy=0;exitPerimeter=0;strokeColor=#67AB9F;strokeWidth=2;align=center;verticalAlign=middle;fontFamily=Helvetica;fontSize=11;fontColor=default;labelBackgroundColor=default;elbow=vertical;endArrow=none;endFill=0;entryX=1;entryY=1;entryDx=0;entryDy=0;" edge="1" parent="1" target="yV69nBCy1edd1DYRwR0H-81">
          <mxGeometry relative="1" as="geometry">
            <mxPoint x="866.03" y="108.5" as="targetPoint" />
            <mxPoint x="777.53" y="107" as="sourcePoint" />
            <Array as="points">
              <mxPoint x="800.03" y="107" />
              <mxPoint x="800.03" y="107" />
            </Array>
          </mxGeometry>
        </mxCell>
        <mxCell id="yV69nBCy1edd1DYRwR0H-74" style="edgeStyle=orthogonalEdgeStyle;rounded=1;orthogonalLoop=1;jettySize=auto;html=1;exitX=0;exitY=0.25;exitDx=0;exitDy=0;exitPerimeter=0;strokeColor=#67AB9F;strokeWidth=2;align=center;verticalAlign=middle;fontFamily=Helvetica;fontSize=11;fontColor=default;labelBackgroundColor=default;elbow=vertical;endArrow=none;endFill=0;" edge="1" parent="1" source="yV69nBCy1edd1DYRwR0H-76">
          <mxGeometry relative="1" as="geometry">
            <mxPoint x="627.03" y="107" as="targetPoint" />
          </mxGeometry>
        </mxCell>
        <mxCell id="yV69nBCy1edd1DYRwR0H-75" style="edgeStyle=orthogonalEdgeStyle;rounded=1;orthogonalLoop=1;jettySize=auto;html=1;exitX=0;exitY=0.75;exitDx=0;exitDy=0;exitPerimeter=0;strokeColor=#67AB9F;strokeWidth=2;align=center;verticalAlign=middle;fontFamily=Helvetica;fontSize=11;fontColor=default;labelBackgroundColor=default;elbow=vertical;endArrow=none;endFill=0;" edge="1" parent="1" source="yV69nBCy1edd1DYRwR0H-76">
          <mxGeometry relative="1" as="geometry">
            <mxPoint x="627.03" y="147" as="targetPoint" />
          </mxGeometry>
        </mxCell>
        <mxCell id="yV69nBCy1edd1DYRwR0H-76" value="" style="verticalLabelPosition=bottom;shadow=0;dashed=0;align=center;html=1;verticalAlign=top;shape=mxgraph.electrical.logic_gates.d_type_flip-flop;strokeWidth=2;" vertex="1" parent="1">
          <mxGeometry x="677.53" y="87" width="100" height="80" as="geometry" />
        </mxCell>
        <mxCell id="yV69nBCy1edd1DYRwR0H-77" value="slope rate valid" style="text;whiteSpace=wrap;html=1;strokeWidth=3;" vertex="1" parent="1">
          <mxGeometry x="590.03" y="77" width="90" height="30" as="geometry" />
        </mxCell>
        <mxCell id="yV69nBCy1edd1DYRwR0H-78" value="max_exchange" style="text;whiteSpace=wrap;html=1;strokeWidth=3;" vertex="1" parent="1">
          <mxGeometry x="587.53" y="122" width="90" height="30" as="geometry" />
        </mxCell>
        <mxCell id="yV69nBCy1edd1DYRwR0H-79" value="" style="shape=image;verticalLabelPosition=bottom;labelBackgroundColor=default;verticalAlign=top;aspect=fixed;imageAspect=0;image=data:image/png,iVBORw0KGgoAAAANSUhEUgAAACoAAAA5CAMAAAEAWHnKAAAAAXNSR0IArs4c6QAAAARnQU1BAACxjwv8YQUAAAA/UExURQAAAAAAAAAAAAAAAAAAAAAAAAAAAAAAAAAAAAAAAAAAAAAAAAAAAAAAAAAAAAAAAAAAAAAAAAAAAAAAAAAAALMlgi8AAAAUdFJOUwAIEIcglzCfOKdAt1jPaHDf54Dv4vA5JAAAAAlwSFlzAAAXEQAAFxEByibzPwAAAQdJREFUOE/tlNsOgjAQRAfEu1WE+f9vNe1KW7YrQgIPJs5DszkMs2VJC2hR1l2qI0smrSaswdCnUrA8mxIZoymvC40lwJiSquVyQ6RL4V0sO8JJdc9a5/0SznZsVKhitbb01zeOpPytXE9PFevIPk4gY2MCoKU9ZNq87GRbLVYZ7Gd00wB4kKcSlROqA2wVFawD/OCKAA8vRQDJA2oVEKCWCWFsCcBxKT5r9oGaCVtAXC0I7DX4ax01D1deSlreZJ+DkY5iEhWHY6z6nWjdiVrd4Jxunxm/tRdjf/DbmGwfjV61fpppZJxU+PA5xuFGauddvDL9Lcxt2LGmhman/oJxyfCr60zjC0BSF19ImznkAAAAAElFTkSuQmCC;rotation=90;strokeWidth=3;" vertex="1" parent="1">
          <mxGeometry x="567.03" y="77" width="21" height="28.5" as="geometry" />
        </mxCell>
        <mxCell id="yV69nBCy1edd1DYRwR0H-80" value="" style="shape=image;verticalLabelPosition=bottom;labelBackgroundColor=default;verticalAlign=top;aspect=fixed;imageAspect=0;image=data:image/png,iVBORw0KGgoAAAANSUhEUgAAACoAAAA5CAMAAAEAWHnKAAAAAXNSR0IArs4c6QAAAARnQU1BAACxjwv8YQUAAAA/UExURQAAAAAAAAAAAAAAAAAAAAAAAAAAAAAAAAAAAAAAAAAAAAAAAAAAAAAAAAAAAAAAAAAAAAAAAAAAAAAAAAAAALMlgi8AAAAUdFJOUwAIEIcglzCfOKdAt1jPaHDf54Dv4vA5JAAAAAlwSFlzAAAXEQAAFxEByibzPwAAAQdJREFUOE/tlNsOgjAQRAfEu1WE+f9vNe1KW7YrQgIPJs5DszkMs2VJC2hR1l2qI0smrSaswdCnUrA8mxIZoymvC40lwJiSquVyQ6RL4V0sO8JJdc9a5/0SznZsVKhitbb01zeOpPytXE9PFevIPk4gY2MCoKU9ZNq87GRbLVYZ7Gd00wB4kKcSlROqA2wVFawD/OCKAA8vRQDJA2oVEKCWCWFsCcBxKT5r9oGaCVtAXC0I7DX4ax01D1deSlreZJ+DkY5iEhWHY6z6nWjdiVrd4Jxunxm/tRdjf/DbmGwfjV61fpppZJxU+PA5xuFGauddvDL9Lcxt2LGmhman/oJxyfCr60zjC0BSF19ImznkAAAAAElFTkSuQmCC;rotation=90;strokeWidth=3;" vertex="1" parent="1">
          <mxGeometry x="566.03" y="119.5" width="21" height="28.5" as="geometry" />
        </mxCell>
        <mxCell id="yV69nBCy1edd1DYRwR0H-81" value="&lt;p style=&quot;language:zh-CN;margin-top:0pt;margin-bottom:0pt;margin-left:0in;&lt;br/&gt;text-align:left;direction:ltr;unicode-bidi:embed;mso-line-break-override:none;&lt;br/&gt;word-break:normal;punctuation-wrap:hanging&quot;&gt;&lt;span&gt;slope_valid&lt;/span&gt;&lt;/p&gt;" style="text;whiteSpace=wrap;html=1;fontFamily=Helvetica;fontSize=13;fontColor=default;strokeWidth=3;" vertex="1" parent="1">
          <mxGeometry x="771.53" y="75" width="88.5" height="32" as="geometry" />
        </mxCell>
        <mxCell id="yV69nBCy1edd1DYRwR0H-82" value="" style="shape=image;verticalLabelPosition=bottom;labelBackgroundColor=default;verticalAlign=top;aspect=fixed;imageAspect=0;image=data:image/png,iVBORw0KGgoAAAANSUhEUgAAACoAAAA5CAMAAAEAWHnKAAAAAXNSR0IArs4c6QAAAARnQU1BAACxjwv8YQUAAAA/UExURQAAAAAAAAAAAAAAAAAAAAAAAAAAAAAAAAAAAAAAAAAAAAAAAAAAAAAAAAAAAAAAAAAAAAAAAAAAAAAAAAAAALMlgi8AAAAUdFJOUwAIEIcglzCfOKdAt1jPaHDf54Dv4vA5JAAAAAlwSFlzAAAXEQAAFxEByibzPwAAAQdJREFUOE/tlNsOgjAQRAfEu1WE+f9vNe1KW7YrQgIPJs5DszkMs2VJC2hR1l2qI0smrSaswdCnUrA8mxIZoymvC40lwJiSquVyQ6RL4V0sO8JJdc9a5/0SznZsVKhitbb01zeOpPytXE9PFevIPk4gY2MCoKU9ZNq87GRbLVYZ7Gd00wB4kKcSlROqA2wVFawD/OCKAA8vRQDJA2oVEKCWCWFsCcBxKT5r9oGaCVtAXC0I7DX4ax01D1deSlreZJ+DkY5iEhWHY6z6nWjdiVrd4Jxunxm/tRdjf/DbmGwfjV61fpppZJxU+PA5xuFGauddvDL9Lcxt2LGmhman/oJxyfCr60zjC0BSF19ImznkAAAAAElFTkSuQmCC;strokeWidth=3;" vertex="1" parent="1">
          <mxGeometry x="842.03" y="67" width="21" height="28.5" as="geometry" />
        </mxCell>
        <mxCell id="yV69nBCy1edd1DYRwR0H-83" value="" style="edgeStyle=elbowEdgeStyle;strokeColor=#67AB9F;strokeWidth=2;exitX=1;exitY=0;exitDx=0;exitDy=0;exitPerimeter=0;rounded=1;align=center;verticalAlign=middle;fontFamily=Helvetica;fontSize=11;fontColor=default;labelBackgroundColor=default;endArrow=none;endFill=0;entryX=1;entryY=0.5;entryDx=0;entryDy=0;" edge="1" parent="1" source="yV69nBCy1edd1DYRwR0H-44" target="yV69nBCy1edd1DYRwR0H-36">
          <mxGeometry width="100" height="100" relative="1" as="geometry">
            <mxPoint x="490.03" y="401" as="sourcePoint" />
            <mxPoint x="658.53" y="403.5" as="targetPoint" />
            <Array as="points">
              <mxPoint x="280.03" y="360" />
            </Array>
          </mxGeometry>
        </mxCell>
        <mxCell id="yV69nBCy1edd1DYRwR0H-84" value="&lt;p style=&quot;language:zh-CN;margin-top:0pt;margin-bottom:0pt;margin-left:0in;&lt;br/&gt;text-align:left;direction:ltr;unicode-bidi:embed;mso-line-break-override:none;&lt;br/&gt;word-break:normal;punctuation-wrap:hanging&quot;&gt;&lt;span&gt;slope valid&lt;/span&gt;&lt;/p&gt;" style="text;whiteSpace=wrap;html=1;fontFamily=Helvetica;fontSize=13;fontColor=default;strokeWidth=3;" vertex="1" parent="1">
          <mxGeometry x="458.53" y="609" width="68" height="25" as="geometry" />
        </mxCell>
        <mxCell id="yV69nBCy1edd1DYRwR0H-85" value="&lt;p style=&quot;language:zh-CN;margin-top:0pt;margin-bottom:0pt;margin-left:0in;&lt;br/&gt;text-align:left;direction:ltr;unicode-bidi:embed;mso-line-break-override:none;&lt;br/&gt;word-break:normal;punctuation-wrap:hanging&quot;&gt;&lt;span&gt;win_valid&lt;/span&gt;&lt;/p&gt;" style="text;whiteSpace=wrap;html=1;fontFamily=Helvetica;fontSize=13;fontColor=default;strokeWidth=3;" vertex="1" parent="1">
          <mxGeometry x="467.03" y="575" width="45.5" height="16" as="geometry" />
        </mxCell>
        <mxCell id="yV69nBCy1edd1DYRwR0H-86" value="&lt;p style=&quot;language:zh-CN;margin-top:0pt;margin-bottom:0pt;margin-left:0in;&lt;br/&gt;text-align:left;direction:ltr;unicode-bidi:embed;mso-line-break-override:none;&lt;br/&gt;word-break:normal;punctuation-wrap:hanging&quot;&gt;&lt;span&gt;~max_exchange&lt;/span&gt;&lt;/p&gt;" style="text;whiteSpace=wrap;html=1;fontFamily=Helvetica;fontSize=13;fontColor=default;strokeWidth=3;" vertex="1" parent="1">
          <mxGeometry x="425.03" y="639" width="68" height="25" as="geometry" />
        </mxCell>
        <mxCell id="yV69nBCy1edd1DYRwR0H-87" value="" style="shape=image;verticalLabelPosition=bottom;labelBackgroundColor=default;verticalAlign=top;aspect=fixed;imageAspect=0;image=data:image/png,iVBORw0KGgoAAAANSUhEUgAAACoAAAA5CAMAAAEAWHnKAAAAAXNSR0IArs4c6QAAAARnQU1BAACxjwv8YQUAAAA/UExURQAAAAAAAAAAAAAAAAAAAAAAAAAAAAAAAAAAAAAAAAAAAAAAAAAAAAAAAAAAAAAAAAAAAAAAAAAAAAAAAAAAALMlgi8AAAAUdFJOUwAIEIcglzCfOKdAt1jPaHDf54Dv4vA5JAAAAAlwSFlzAAAXEQAAFxEByibzPwAAAQdJREFUOE/tlNsOgjAQRAfEu1WE+f9vNe1KW7YrQgIPJs5DszkMs2VJC2hR1l2qI0smrSaswdCnUrA8mxIZoymvC40lwJiSquVyQ6RL4V0sO8JJdc9a5/0SznZsVKhitbb01zeOpPytXE9PFevIPk4gY2MCoKU9ZNq87GRbLVYZ7Gd00wB4kKcSlROqA2wVFawD/OCKAA8vRQDJA2oVEKCWCWFsCcBxKT5r9oGaCVtAXC0I7DX4ax01D1deSlreZJ+DkY5iEhWHY6z6nWjdiVrd4Jxunxm/tRdjf/DbmGwfjV61fpppZJxU+PA5xuFGauddvDL9Lcxt2LGmhman/oJxyfCr60zjC0BSF19ImznkAAAAAElFTkSuQmCC;rotation=90;strokeWidth=3;" vertex="1" parent="1">
          <mxGeometry x="404.03" y="639" width="21" height="28.5" as="geometry" />
        </mxCell>
        <mxCell id="yV69nBCy1edd1DYRwR0H-88" value="" style="shape=image;verticalLabelPosition=bottom;labelBackgroundColor=default;verticalAlign=top;aspect=fixed;imageAspect=0;image=data:image/png,iVBORw0KGgoAAAANSUhEUgAAACoAAAA5CAMAAAEAWHnKAAAAAXNSR0IArs4c6QAAAARnQU1BAACxjwv8YQUAAAA/UExURQAAAAAAAAAAAAAAAAAAAAAAAAAAAAAAAAAAAAAAAAAAAAAAAAAAAAAAAAAAAAAAAAAAAAAAAAAAAAAAAAAAALMlgi8AAAAUdFJOUwAIEIcglzCfOKdAt1jPaHDf54Dv4vA5JAAAAAlwSFlzAAAXEQAAFxEByibzPwAAAQdJREFUOE/tlNsOgjAQRAfEu1WE+f9vNe1KW7YrQgIPJs5DszkMs2VJC2hR1l2qI0smrSaswdCnUrA8mxIZoymvC40lwJiSquVyQ6RL4V0sO8JJdc9a5/0SznZsVKhitbb01zeOpPytXE9PFevIPk4gY2MCoKU9ZNq87GRbLVYZ7Gd00wB4kKcSlROqA2wVFawD/OCKAA8vRQDJA2oVEKCWCWFsCcBxKT5r9oGaCVtAXC0I7DX4ax01D1deSlreZJ+DkY5iEhWHY6z6nWjdiVrd4Jxunxm/tRdjf/DbmGwfjV61fpppZJxU+PA5xuFGauddvDL9Lcxt2LGmhman/oJxyfCr60zjC0BSF19ImznkAAAAAElFTkSuQmCC;rotation=90;strokeWidth=3;" vertex="1" parent="1">
          <mxGeometry x="441.53" y="609" width="21" height="28.5" as="geometry" />
        </mxCell>
        <mxCell id="yV69nBCy1edd1DYRwR0H-89" style="edgeStyle=orthogonalEdgeStyle;rounded=1;orthogonalLoop=1;jettySize=auto;html=1;strokeColor=#67AB9F;strokeWidth=2;align=center;verticalAlign=middle;fontFamily=Helvetica;fontSize=11;fontColor=default;labelBackgroundColor=default;endArrow=classic;endFill=1;entryX=0.5;entryY=1;entryDx=0;entryDy=0;exitX=1;exitY=0.5;exitDx=0;exitDy=0;exitPerimeter=0;" edge="1" parent="1" source="yV69nBCy1edd1DYRwR0H-72" target="yV69nBCy1edd1DYRwR0H-90">
          <mxGeometry relative="1" as="geometry">
            <mxPoint x="673.03" y="630" as="sourcePoint" />
            <mxPoint x="185.02999999999997" y="600" as="targetPoint" />
            <Array as="points">
              <mxPoint x="653.03" y="610" />
              <mxPoint x="653.03" y="711" />
              <mxPoint x="183.02999999999997" y="711" />
            </Array>
          </mxGeometry>
        </mxCell>
        <mxCell id="yV69nBCy1edd1DYRwR0H-90" value="" style="ellipse;whiteSpace=wrap;html=1;aspect=fixed;strokeWidth=3;" vertex="1" parent="1">
          <mxGeometry x="178.02999999999997" y="669" width="10" height="10" as="geometry" />
        </mxCell>
        <mxCell id="yV69nBCy1edd1DYRwR0H-91" value="counter reset" style="text;whiteSpace=wrap;html=1;strokeWidth=3;" vertex="1" parent="1">
          <mxGeometry x="369.03" y="689" width="90" height="30" as="geometry" />
        </mxCell>
        <mxCell id="yV69nBCy1edd1DYRwR0H-92" value="comp_slope_out" style="text;whiteSpace=wrap;html=1;align=center;strokeWidth=3;" vertex="1" parent="1">
          <mxGeometry x="90.03" y="141" width="95" height="40" as="geometry" />
        </mxCell>
        <mxCell id="yV69nBCy1edd1DYRwR0H-93" style="edgeStyle=orthogonalEdgeStyle;rounded=1;orthogonalLoop=1;jettySize=auto;html=1;strokeColor=#67AB9F;strokeWidth=2;align=center;verticalAlign=middle;fontFamily=Helvetica;fontSize=11;fontColor=default;labelBackgroundColor=default;endArrow=none;endFill=0;elbow=vertical;entryX=0;entryY=0.8;entryDx=0;entryDy=0;entryPerimeter=0;exitX=1;exitY=0.5;exitDx=0;exitDy=0;" edge="1" parent="1" source="yV69nBCy1edd1DYRwR0H-92" target="yV69nBCy1edd1DYRwR0H-17">
          <mxGeometry relative="1" as="geometry">
            <mxPoint x="294.03" y="181" as="targetPoint" />
            <mxPoint x="240.02999999999997" y="205" as="sourcePoint" />
          </mxGeometry>
        </mxCell>
        <mxCell id="yV69nBCy1edd1DYRwR0H-94" style="rounded=1;orthogonalLoop=1;jettySize=auto;html=1;exitX=1;exitY=0.25;exitDx=0;exitDy=0;exitPerimeter=0;strokeColor=#67AB9F;strokeWidth=2;align=center;verticalAlign=middle;fontFamily=Helvetica;fontSize=11;fontColor=default;labelBackgroundColor=default;elbow=vertical;endArrow=none;endFill=0;entryX=1;entryY=1;entryDx=0;entryDy=0;" edge="1" parent="1" target="yV69nBCy1edd1DYRwR0H-102">
          <mxGeometry relative="1" as="geometry">
            <mxPoint x="866.03" y="528.5" as="targetPoint" />
            <mxPoint x="777.53" y="527" as="sourcePoint" />
          </mxGeometry>
        </mxCell>
        <mxCell id="yV69nBCy1edd1DYRwR0H-95" style="edgeStyle=orthogonalEdgeStyle;rounded=1;orthogonalLoop=1;jettySize=auto;html=1;exitX=0;exitY=0.25;exitDx=0;exitDy=0;exitPerimeter=0;strokeColor=#67AB9F;strokeWidth=2;align=center;verticalAlign=middle;fontFamily=Helvetica;fontSize=11;fontColor=default;labelBackgroundColor=default;elbow=vertical;endArrow=none;endFill=0;" edge="1" parent="1" source="yV69nBCy1edd1DYRwR0H-97">
          <mxGeometry relative="1" as="geometry">
            <mxPoint x="627.03" y="527" as="targetPoint" />
          </mxGeometry>
        </mxCell>
        <mxCell id="yV69nBCy1edd1DYRwR0H-96" style="edgeStyle=orthogonalEdgeStyle;rounded=1;orthogonalLoop=1;jettySize=auto;html=1;exitX=0;exitY=0.75;exitDx=0;exitDy=0;exitPerimeter=0;strokeColor=#67AB9F;strokeWidth=2;align=center;verticalAlign=middle;fontFamily=Helvetica;fontSize=11;fontColor=default;labelBackgroundColor=default;elbow=vertical;endArrow=none;endFill=0;" edge="1" parent="1" source="yV69nBCy1edd1DYRwR0H-97">
          <mxGeometry relative="1" as="geometry">
            <mxPoint x="627.03" y="567" as="targetPoint" />
          </mxGeometry>
        </mxCell>
        <mxCell id="yV69nBCy1edd1DYRwR0H-97" value="" style="verticalLabelPosition=bottom;shadow=0;dashed=0;align=center;html=1;verticalAlign=top;shape=mxgraph.electrical.logic_gates.d_type_flip-flop;strokeWidth=2;" vertex="1" parent="1">
          <mxGeometry x="677.53" y="507" width="100" height="80" as="geometry" />
        </mxCell>
        <mxCell id="yV69nBCy1edd1DYRwR0H-98" value="max_exchange" style="text;whiteSpace=wrap;html=1;strokeWidth=3;" vertex="1" parent="1">
          <mxGeometry x="587.53" y="542" width="90" height="30" as="geometry" />
        </mxCell>
        <mxCell id="yV69nBCy1edd1DYRwR0H-99" value="" style="shape=image;verticalLabelPosition=bottom;labelBackgroundColor=default;verticalAlign=top;aspect=fixed;imageAspect=0;image=data:image/png,iVBORw0KGgoAAAANSUhEUgAAACoAAAA5CAMAAAEAWHnKAAAAAXNSR0IArs4c6QAAAARnQU1BAACxjwv8YQUAAAA/UExURQAAAAAAAAAAAAAAAAAAAAAAAAAAAAAAAAAAAAAAAAAAAAAAAAAAAAAAAAAAAAAAAAAAAAAAAAAAAAAAAAAAALMlgi8AAAAUdFJOUwAIEIcglzCfOKdAt1jPaHDf54Dv4vA5JAAAAAlwSFlzAAAXEQAAFxEByibzPwAAAQdJREFUOE/tlNsOgjAQRAfEu1WE+f9vNe1KW7YrQgIPJs5DszkMs2VJC2hR1l2qI0smrSaswdCnUrA8mxIZoymvC40lwJiSquVyQ6RL4V0sO8JJdc9a5/0SznZsVKhitbb01zeOpPytXE9PFevIPk4gY2MCoKU9ZNq87GRbLVYZ7Gd00wB4kKcSlROqA2wVFawD/OCKAA8vRQDJA2oVEKCWCWFsCcBxKT5r9oGaCVtAXC0I7DX4ax01D1deSlreZJ+DkY5iEhWHY6z6nWjdiVrd4Jxunxm/tRdjf/DbmGwfjV61fpppZJxU+PA5xuFGauddvDL9Lcxt2LGmhman/oJxyfCr60zjC0BSF19ImznkAAAAAElFTkSuQmCC;rotation=90;strokeWidth=3;" vertex="1" parent="1">
          <mxGeometry x="566.03" y="539.5" width="21" height="28.5" as="geometry" />
        </mxCell>
        <mxCell id="yV69nBCy1edd1DYRwR0H-100" value="" style="shape=image;verticalLabelPosition=bottom;labelBackgroundColor=default;verticalAlign=top;aspect=fixed;imageAspect=0;image=data:image/png,iVBORw0KGgoAAAANSUhEUgAAACoAAAA5CAMAAAEAWHnKAAAAAXNSR0IArs4c6QAAAARnQU1BAACxjwv8YQUAAAA/UExURQAAAAAAAAAAAAAAAAAAAAAAAAAAAAAAAAAAAAAAAAAAAAAAAAAAAAAAAAAAAAAAAAAAAAAAAAAAAAAAAAAAALMlgi8AAAAUdFJOUwAIEIcglzCfOKdAt1jPaHDf54Dv4vA5JAAAAAlwSFlzAAAXEQAAFxEByibzPwAAAQdJREFUOE/tlNsOgjAQRAfEu1WE+f9vNe1KW7YrQgIPJs5DszkMs2VJC2hR1l2qI0smrSaswdCnUrA8mxIZoymvC40lwJiSquVyQ6RL4V0sO8JJdc9a5/0SznZsVKhitbb01zeOpPytXE9PFevIPk4gY2MCoKU9ZNq87GRbLVYZ7Gd00wB4kKcSlROqA2wVFawD/OCKAA8vRQDJA2oVEKCWCWFsCcBxKT5r9oGaCVtAXC0I7DX4ax01D1deSlreZJ+DkY5iEhWHY6z6nWjdiVrd4Jxunxm/tRdjf/DbmGwfjV61fpppZJxU+PA5xuFGauddvDL9Lcxt2LGmhman/oJxyfCr60zjC0BSF19ImznkAAAAAElFTkSuQmCC;strokeWidth=3;" vertex="1" parent="1">
          <mxGeometry x="859.53" y="494" width="21" height="28.5" as="geometry" />
        </mxCell>
        <mxCell id="yV69nBCy1edd1DYRwR0H-101" value="data_in[n-1:0]" style="text;whiteSpace=wrap;html=1;strokeWidth=3;" vertex="1" parent="1">
          <mxGeometry x="591.03" y="499.5" width="100" height="40" as="geometry" />
        </mxCell>
        <mxCell id="yV69nBCy1edd1DYRwR0H-102" value="temp_max_slope" style="text;whiteSpace=wrap;html=1;strokeWidth=3;" vertex="1" parent="1">
          <mxGeometry x="765.03" y="501.5" width="105" height="25.5" as="geometry" />
        </mxCell>
        <mxCell id="yV69nBCy1edd1DYRwR0H-103" value="" style="shape=image;verticalLabelPosition=bottom;labelBackgroundColor=default;verticalAlign=top;aspect=fixed;imageAspect=0;image=data:image/png,iVBORw0KGgoAAAANSUhEUgAAACoAAAA5CAMAAAEAWHnKAAAAAXNSR0IArs4c6QAAAARnQU1BAACxjwv8YQUAAAA/UExURQAAAAAAAAAAAAAAAAAAAAAAAAAAAAAAAAAAAAAAAAAAAAAAAAAAAAAAAAAAAAAAAAAAAAAAAAAAAAAAAAAAALMlgi8AAAAUdFJOUwAIEIcglzCfOKdAt1jPaHDf54Dv4vA5JAAAAAlwSFlzAAAXEQAAFxEByibzPwAAAQdJREFUOE/tlNsOgjAQRAfEu1WE+f9vNe1KW7YrQgIPJs5DszkMs2VJC2hR1l2qI0smrSaswdCnUrA8mxIZoymvC40lwJiSquVyQ6RL4V0sO8JJdc9a5/0SznZsVKhitbb01zeOpPytXE9PFevIPk4gY2MCoKU9ZNq87GRbLVYZ7Gd00wB4kKcSlROqA2wVFawD/OCKAA8vRQDJA2oVEKCWCWFsCcBxKT5r9oGaCVtAXC0I7DX4ax01D1deSlreZJ+DkY5iEhWHY6z6nWjdiVrd4Jxunxm/tRdjf/DbmGwfjV61fpppZJxU+PA5xuFGauddvDL9Lcxt2LGmhman/oJxyfCr60zjC0BSF19ImznkAAAAAElFTkSuQmCC;rotation=90;strokeWidth=3;" vertex="1" parent="1">
          <mxGeometry x="266.53" y="441.5" width="21" height="28.5" as="geometry" />
        </mxCell>
        <mxCell id="yV69nBCy1edd1DYRwR0H-104" style="edgeStyle=orthogonalEdgeStyle;rounded=1;orthogonalLoop=1;jettySize=auto;html=1;exitX=0;exitY=0.75;exitDx=0;exitDy=0;exitPerimeter=0;strokeColor=#67AB9F;strokeWidth=2;align=center;verticalAlign=middle;fontFamily=Helvetica;fontSize=11;fontColor=default;labelBackgroundColor=default;elbow=vertical;endArrow=none;endFill=0;" edge="1" parent="1" source="yV69nBCy1edd1DYRwR0H-106">
          <mxGeometry relative="1" as="geometry">
            <mxPoint x="630.03" y="801.4285714285713" as="targetPoint" />
          </mxGeometry>
        </mxCell>
        <mxCell id="yV69nBCy1edd1DYRwR0H-105" style="rounded=1;orthogonalLoop=1;jettySize=auto;html=1;exitX=1;exitY=0.25;exitDx=0;exitDy=0;exitPerimeter=0;strokeColor=#000000;strokeWidth=4;align=center;verticalAlign=middle;fontFamily=Helvetica;fontSize=11;fontColor=default;labelBackgroundColor=default;endArrow=block;endFill=1;" edge="1" parent="1" source="yV69nBCy1edd1DYRwR0H-106">
          <mxGeometry relative="1" as="geometry">
            <mxPoint x="920.03" y="760" as="targetPoint" />
          </mxGeometry>
        </mxCell>
        <mxCell id="yV69nBCy1edd1DYRwR0H-106" value="" style="verticalLabelPosition=bottom;shadow=0;dashed=0;align=center;html=1;verticalAlign=top;shape=mxgraph.electrical.logic_gates.d_type_flip-flop;strokeWidth=2;rounded=1;strokeColor=default;fontFamily=Helvetica;fontSize=12;fontColor=default;labelBackgroundColor=default;fillColor=default;" vertex="1" parent="1">
          <mxGeometry x="677.53" y="741" width="100" height="80" as="geometry" />
        </mxCell>
        <mxCell id="yV69nBCy1edd1DYRwR0H-107" style="edgeStyle=orthogonalEdgeStyle;rounded=1;orthogonalLoop=1;jettySize=auto;html=1;exitX=1;exitY=0.75;exitDx=0;exitDy=0;exitPerimeter=0;entryX=0;entryY=0.25;entryDx=0;entryDy=0;entryPerimeter=0;strokeColor=#67AB9F;strokeWidth=2;align=center;verticalAlign=middle;fontFamily=Helvetica;fontSize=11;fontColor=default;labelBackgroundColor=default;elbow=vertical;endArrow=none;endFill=0;" edge="1" parent="1" source="yV69nBCy1edd1DYRwR0H-106" target="yV69nBCy1edd1DYRwR0H-106">
          <mxGeometry relative="1" as="geometry">
            <Array as="points">
              <mxPoint x="797.03" y="801" />
              <mxPoint x="797.03" y="711" />
              <mxPoint x="677.03" y="711" />
            </Array>
          </mxGeometry>
        </mxCell>
        <mxCell id="yV69nBCy1edd1DYRwR0H-108" value="win_overflow" style="text;whiteSpace=wrap;html=1;strokeWidth=3;" vertex="1" parent="1">
          <mxGeometry x="609.03" y="775" width="90" height="30" as="geometry" />
        </mxCell>
        <mxCell id="yV69nBCy1edd1DYRwR0H-109" value="dout" style="text;whiteSpace=wrap;html=1;strokeWidth=3;fontFamily=Helvetica;fontSize=11;fontColor=default;labelBackgroundColor=default;fontStyle=1" vertex="1" parent="1">
          <mxGeometry x="802.03" y="729" width="40" height="30" as="geometry" />
        </mxCell>
        <mxCell id="yV69nBCy1edd1DYRwR0H-110" style="edgeStyle=orthogonalEdgeStyle;rounded=1;orthogonalLoop=1;jettySize=auto;html=1;exitX=0;exitY=0.75;exitDx=0;exitDy=0;exitPerimeter=0;strokeColor=#67AB9F;strokeWidth=2;align=center;verticalAlign=middle;fontFamily=Helvetica;fontSize=11;fontColor=default;labelBackgroundColor=default;elbow=vertical;endArrow=none;endFill=0;" edge="1" parent="1" source="yV69nBCy1edd1DYRwR0H-112">
          <mxGeometry relative="1" as="geometry">
            <mxPoint x="381.03" y="801.4285714285713" as="targetPoint" />
          </mxGeometry>
        </mxCell>
        <mxCell id="yV69nBCy1edd1DYRwR0H-111" style="edgeStyle=orthogonalEdgeStyle;rounded=1;orthogonalLoop=1;jettySize=auto;html=1;exitX=1;exitY=0.25;exitDx=0;exitDy=0;exitPerimeter=0;strokeColor=#000000;strokeWidth=4;align=center;verticalAlign=middle;fontFamily=Helvetica;fontSize=11;fontColor=default;labelBackgroundColor=default;elbow=vertical;endArrow=block;endFill=1;" edge="1" parent="1" source="yV69nBCy1edd1DYRwR0H-112">
          <mxGeometry relative="1" as="geometry">
            <mxPoint x="920.03" y="830" as="targetPoint" />
            <Array as="points">
              <mxPoint x="580.03" y="760" />
              <mxPoint x="580.03" y="830" />
              <mxPoint x="899.03" y="830" />
            </Array>
          </mxGeometry>
        </mxCell>
        <mxCell id="yV69nBCy1edd1DYRwR0H-112" value="" style="verticalLabelPosition=bottom;shadow=0;dashed=0;align=center;html=1;verticalAlign=top;shape=mxgraph.electrical.logic_gates.d_type_flip-flop;strokeWidth=2;rounded=1;strokeColor=default;fontFamily=Helvetica;fontSize=12;fontColor=default;labelBackgroundColor=default;fillColor=default;" vertex="1" parent="1">
          <mxGeometry x="428.53" y="741" width="100" height="80" as="geometry" />
        </mxCell>
        <mxCell id="yV69nBCy1edd1DYRwR0H-113" value="win_overflow" style="text;whiteSpace=wrap;html=1;strokeWidth=3;" vertex="1" parent="1">
          <mxGeometry x="360.03" y="775" width="90" height="30" as="geometry" />
        </mxCell>
        <mxCell id="yV69nBCy1edd1DYRwR0H-114" value="correction" style="text;whiteSpace=wrap;html=1;strokeWidth=3;fontFamily=Helvetica;fontSize=11;fontColor=default;labelBackgroundColor=default;fontStyle=1" vertex="1" parent="1">
          <mxGeometry x="786.03" y="805" width="85" height="30" as="geometry" />
        </mxCell>
        <mxCell id="yV69nBCy1edd1DYRwR0H-115" value="&lt;p style=&quot;language:zh-CN;margin-top:0pt;margin-bottom:0pt;margin-left:0in;&lt;br/&gt;text-align:left;direction:ltr;unicode-bidi:embed;mso-line-break-override:none;&lt;br/&gt;word-break:normal;punctuation-wrap:hanging&quot;&gt;&lt;span style=&quot;font-family: Calibri; color: black; font-weight: normal;&quot;&gt;&lt;span style=&quot;font-size: 12px; background-color: transparent; color: light-dark(rgb(0, 0, 0), rgb(255, 255, 255)); font-family: Helvetica;&quot;&gt;temp_max_slope&lt;/span&gt;[n-1]&lt;/span&gt;&lt;/p&gt;" style="text;whiteSpace=wrap;html=1;fontFamily=Helvetica;fontSize=13;fontColor=default;strokeWidth=3;" vertex="1" parent="1">
          <mxGeometry x="173.02999999999997" y="737" width="134.5" height="40" as="geometry" />
        </mxCell>
        <mxCell id="yV69nBCy1edd1DYRwR0H-116" value="" style="verticalLabelPosition=bottom;verticalAlign=top;html=1;shape=mxgraph.flowchart.summing_function;strokeWidth=2;shadow=0;aspect=fixed;" vertex="1" parent="1">
          <mxGeometry x="293.03" y="746" width="30" height="30" as="geometry" />
        </mxCell>
        <mxCell id="yV69nBCy1edd1DYRwR0H-117" value="" style="edgeStyle=elbowEdgeStyle;elbow=vertical;strokeColor=#67AB9F;strokeWidth=2;exitX=0;exitY=0.6;exitDx=0;exitDy=0;exitPerimeter=0;rounded=1;align=center;verticalAlign=middle;fontFamily=Helvetica;fontSize=11;fontColor=default;labelBackgroundColor=default;endArrow=none;endFill=0;" edge="1" parent="1" source="yV69nBCy1edd1DYRwR0H-115">
          <mxGeometry width="100" height="100" relative="1" as="geometry">
            <mxPoint x="198.02999999999997" y="760.44" as="sourcePoint" />
            <mxPoint x="292.03" y="760" as="targetPoint" />
          </mxGeometry>
        </mxCell>
        <mxCell id="yV69nBCy1edd1DYRwR0H-118" value="" style="edgeStyle=elbowEdgeStyle;elbow=vertical;strokeColor=#67AB9F;strokeWidth=2;exitX=1;exitY=0.5;exitDx=0;exitDy=0;entryX=0.5;entryY=1;entryDx=0;entryDy=0;entryPerimeter=0;rounded=1;align=center;verticalAlign=middle;fontFamily=Helvetica;fontSize=11;fontColor=default;labelBackgroundColor=default;endArrow=none;endFill=0;" edge="1" parent="1" source="yV69nBCy1edd1DYRwR0H-119" target="yV69nBCy1edd1DYRwR0H-116">
          <mxGeometry width="100" height="100" relative="1" as="geometry">
            <mxPoint x="272.03" y="786" as="sourcePoint" />
            <mxPoint x="382.03" y="786" as="targetPoint" />
            <Array as="points">
              <mxPoint x="302.03" y="806" />
            </Array>
          </mxGeometry>
        </mxCell>
        <mxCell id="yV69nBCy1edd1DYRwR0H-119" value="&lt;p style=&quot;language:zh-CN;margin-top:0pt;margin-bottom:0pt;margin-left:0in;&lt;br/&gt;text-align:left;direction:ltr;unicode-bidi:embed;mso-line-break-override:none;&lt;br/&gt;word-break:normal;punctuation-wrap:hanging&quot;&gt;&lt;span style=&quot;font-family: Calibri;&quot;&gt;comp_slope&lt;/span&gt;&lt;span style=&quot;font-family: Calibri;&quot;&gt;[n-1]&lt;/span&gt;&lt;/p&gt;" style="text;whiteSpace=wrap;html=1;fontFamily=Helvetica;fontSize=13;fontColor=default;strokeWidth=3;" vertex="1" parent="1">
          <mxGeometry x="173.02999999999997" y="786" width="100" height="40" as="geometry" />
        </mxCell>
        <mxCell id="yV69nBCy1edd1DYRwR0H-120" style="edgeStyle=orthogonalEdgeStyle;rounded=1;orthogonalLoop=1;jettySize=auto;html=1;exitX=1;exitY=0.5;exitDx=0;exitDy=0;exitPerimeter=0;entryX=0;entryY=0.25;entryDx=0;entryDy=0;entryPerimeter=0;strokeColor=#67AB9F;strokeWidth=2;align=center;verticalAlign=middle;fontFamily=Helvetica;fontSize=11;fontColor=default;labelBackgroundColor=default;elbow=vertical;endArrow=none;endFill=0;" edge="1" parent="1" source="yV69nBCy1edd1DYRwR0H-116" target="yV69nBCy1edd1DYRwR0H-112">
          <mxGeometry relative="1" as="geometry" />
        </mxCell>
        <mxCell id="yV69nBCy1edd1DYRwR0H-121" value="" style="shape=image;verticalLabelPosition=bottom;labelBackgroundColor=default;verticalAlign=top;aspect=fixed;imageAspect=0;image=data:image/png,iVBORw0KGgoAAAANSUhEUgAAACoAAAA5CAMAAAEAWHnKAAAAAXNSR0IArs4c6QAAAARnQU1BAACxjwv8YQUAAAA/UExURQAAAAAAAAAAAAAAAAAAAAAAAAAAAAAAAAAAAAAAAAAAAAAAAAAAAAAAAAAAAAAAAAAAAAAAAAAAAAAAAAAAALMlgi8AAAAUdFJOUwAIEIcglzCfOKdAt1jPaHDf54Dv4vA5JAAAAAlwSFlzAAAXEQAAFxEByibzPwAAAQdJREFUOE/tlNsOgjAQRAfEu1WE+f9vNe1KW7YrQgIPJs5DszkMs2VJC2hR1l2qI0smrSaswdCnUrA8mxIZoymvC40lwJiSquVyQ6RL4V0sO8JJdc9a5/0SznZsVKhitbb01zeOpPytXE9PFevIPk4gY2MCoKU9ZNq87GRbLVYZ7Gd00wB4kKcSlROqA2wVFawD/OCKAA8vRQDJA2oVEKCWCWFsCcBxKT5r9oGaCVtAXC0I7DX4ax01D1deSlreZJ+DkY5iEhWHY6z6nWjdiVrd4Jxunxm/tRdjf/DbmGwfjV61fpppZJxU+PA5xuFGauddvDL9Lcxt2LGmhman/oJxyfCr60zjC0BSF19ImznkAAAAAElFTkSuQmCC;rotation=90;strokeWidth=3;" vertex="1" parent="1">
          <mxGeometry x="150.03" y="736" width="21" height="28.5" as="geometry" />
        </mxCell>
        <mxCell id="yV69nBCy1edd1DYRwR0H-122" value="" style="shape=image;verticalLabelPosition=bottom;labelBackgroundColor=default;verticalAlign=top;aspect=fixed;imageAspect=0;image=data:image/png,iVBORw0KGgoAAAANSUhEUgAAACoAAAA5CAMAAAEAWHnKAAAAAXNSR0IArs4c6QAAAARnQU1BAACxjwv8YQUAAAA/UExURQAAAAAAAAAAAAAAAAAAAAAAAAAAAAAAAAAAAAAAAAAAAAAAAAAAAAAAAAAAAAAAAAAAAAAAAAAAAAAAAAAAALMlgi8AAAAUdFJOUwAIEIcglzCfOKdAt1jPaHDf54Dv4vA5JAAAAAlwSFlzAAAXEQAAFxEByibzPwAAAQdJREFUOE/tlNsOgjAQRAfEu1WE+f9vNe1KW7YrQgIPJs5DszkMs2VJC2hR1l2qI0smrSaswdCnUrA8mxIZoymvC40lwJiSquVyQ6RL4V0sO8JJdc9a5/0SznZsVKhitbb01zeOpPytXE9PFevIPk4gY2MCoKU9ZNq87GRbLVYZ7Gd00wB4kKcSlROqA2wVFawD/OCKAA8vRQDJA2oVEKCWCWFsCcBxKT5r9oGaCVtAXC0I7DX4ax01D1deSlreZJ+DkY5iEhWHY6z6nWjdiVrd4Jxunxm/tRdjf/DbmGwfjV61fpppZJxU+PA5xuFGauddvDL9Lcxt2LGmhman/oJxyfCr60zjC0BSF19ImznkAAAAAElFTkSuQmCC;strokeWidth=3;" vertex="1" parent="1">
          <mxGeometry x="173.52999999999997" y="270.75" width="21" height="28.5" as="geometry" />
        </mxCell>
        <mxCell id="yV69nBCy1edd1DYRwR0H-123" value="" style="shape=image;verticalLabelPosition=bottom;labelBackgroundColor=default;verticalAlign=top;aspect=fixed;imageAspect=0;image=data:image/png,iVBORw0KGgoAAAANSUhEUgAAACoAAAA5CAMAAAEAWHnKAAAAAXNSR0IArs4c6QAAAARnQU1BAACxjwv8YQUAAAA/UExURQAAAAAAAAAAAAAAAAAAAAAAAAAAAAAAAAAAAAAAAAAAAAAAAAAAAAAAAAAAAAAAAAAAAAAAAAAAAAAAAAAAALMlgi8AAAAUdFJOUwAIEIcglzCfOKdAt1jPaHDf54Dv4vA5JAAAAAlwSFlzAAAXEQAAFxEByibzPwAAAQdJREFUOE/tlNsOgjAQRAfEu1WE+f9vNe1KW7YrQgIPJs5DszkMs2VJC2hR1l2qI0smrSaswdCnUrA8mxIZoymvC40lwJiSquVyQ6RL4V0sO8JJdc9a5/0SznZsVKhitbb01zeOpPytXE9PFevIPk4gY2MCoKU9ZNq87GRbLVYZ7Gd00wB4kKcSlROqA2wVFawD/OCKAA8vRQDJA2oVEKCWCWFsCcBxKT5r9oGaCVtAXC0I7DX4ax01D1deSlreZJ+DkY5iEhWHY6z6nWjdiVrd4Jxunxm/tRdjf/DbmGwfjV61fpppZJxU+PA5xuFGauddvDL9Lcxt2LGmhman/oJxyfCr60zjC0BSF19ImznkAAAAAElFTkSuQmCC;rotation=90;strokeWidth=3;" vertex="1" parent="1">
          <mxGeometry x="566.03" y="501" width="21" height="28.5" as="geometry" />
        </mxCell>
        <mxCell id="yV69nBCy1edd1DYRwR0H-124" value="" style="shape=image;verticalLabelPosition=bottom;labelBackgroundColor=default;verticalAlign=top;aspect=fixed;imageAspect=0;image=data:image/png,iVBORw0KGgoAAAANSUhEUgAAACoAAAA5CAMAAAEAWHnKAAAAAXNSR0IArs4c6QAAAARnQU1BAACxjwv8YQUAAAA/UExURQAAAAAAAAAAAAAAAAAAAAAAAAAAAAAAAAAAAAAAAAAAAAAAAAAAAAAAAAAAAAAAAAAAAAAAAAAAAAAAAAAAALMlgi8AAAAUdFJOUwAIEIcglzCfOKdAt1jPaHDf54Dv4vA5JAAAAAlwSFlzAAAXEQAAFxEByibzPwAAAQdJREFUOE/tlNsOgjAQRAfEu1WE+f9vNe1KW7YrQgIPJs5DszkMs2VJC2hR1l2qI0smrSaswdCnUrA8mxIZoymvC40lwJiSquVyQ6RL4V0sO8JJdc9a5/0SznZsVKhitbb01zeOpPytXE9PFevIPk4gY2MCoKU9ZNq87GRbLVYZ7Gd00wB4kKcSlROqA2wVFawD/OCKAA8vRQDJA2oVEKCWCWFsCcBxKT5r9oGaCVtAXC0I7DX4ax01D1deSlreZJ+DkY5iEhWHY6z6nWjdiVrd4Jxunxm/tRdjf/DbmGwfjV61fpppZJxU+PA5xuFGauddvDL9Lcxt2LGmhman/oJxyfCr60zjC0BSF19ImznkAAAAAElFTkSuQmCC;strokeWidth=3;" vertex="1" parent="1">
          <mxGeometry x="848.03" y="578.5" width="21" height="28.5" as="geometry" />
        </mxCell>
        <mxCell id="yV69nBCy1edd1DYRwR0H-125" value="&lt;p style=&quot;language:zh-CN;margin-top:0pt;margin-bottom:0pt;margin-left:0in;&lt;br/&gt;text-align:left;direction:ltr;unicode-bidi:embed;mso-line-break-override:none;&lt;br/&gt;word-break:normal;punctuation-wrap:hanging&quot;&gt;abs(din) &amp;gt; abs(last_slope)&lt;/p&gt;&lt;p style=&quot;language:zh-CN;margin-top:0pt;margin-bottom:0pt;margin-left:0in;&lt;br/&gt;text-align:left;direction:ltr;unicode-bidi:embed;mso-line-break-override:none;&lt;br/&gt;word-break:normal;punctuation-wrap:hanging&quot;&gt;&amp;nbsp; &amp;nbsp; &amp;nbsp; correction triggered&lt;/p&gt;" style="text;whiteSpace=wrap;html=1;fontFamily=Times New Roman;fontSize=13;fontColor=#FF3333;strokeWidth=3;fontStyle=1;textShadow=0;labelBackgroundColor=none;glass=0;shadow=0;" vertex="1" parent="1">
          <mxGeometry x="527.78" y="223.5" width="166.5" height="40" as="geometry" />
        </mxCell>
        <mxCell id="yV69nBCy1edd1DYRwR0H-126" value="&lt;p style=&quot;language:zh-CN;margin-top:0pt;margin-bottom:0pt;margin-left:0in;&lt;br/&gt;text-align:left;direction:ltr;unicode-bidi:embed;mso-line-break-override:none;&lt;br/&gt;word-break:normal;punctuation-wrap:hanging&quot;&gt;abs(din) &amp;gt; abs(threshold)&lt;/p&gt;" style="text;whiteSpace=wrap;html=1;fontFamily=Times New Roman;fontSize=13;fontColor=#FF3333;strokeWidth=3;fontStyle=1;textShadow=0;labelBackgroundColor=none;glass=0;shadow=0;" vertex="1" parent="1">
          <mxGeometry x="529.03" y="173.5" width="166.5" height="40" as="geometry" />
        </mxCell>
        <mxCell id="yV69nBCy1edd1DYRwR0H-127" value="&lt;span style=&quot;font-size: 13px; font-style: normal; font-variant-ligatures: normal; font-variant-caps: normal; font-weight: 700; letter-spacing: normal; orphans: 2; text-align: left; text-indent: 0px; text-transform: none; widows: 2; word-spacing: 0px; -webkit-text-stroke-width: 0px; white-space: normal; text-decoration-thickness: initial; text-decoration-style: initial; text-decoration-color: initial; float: none; display: inline !important;&quot;&gt;correction&lt;span&gt;&amp;nbsp;or toggle&lt;/span&gt;&lt;/span&gt;" style="text;whiteSpace=wrap;html=1;textShadow=0;labelBackgroundColor=none;glass=0;shadow=0;fontFamily=Times New Roman;fontColor=#FF3333;" vertex="1" parent="1">
          <mxGeometry x="627.53" y="350" width="150" height="40" as="geometry" />
        </mxCell>
        <mxCell id="yV69nBCy1edd1DYRwR0H-128" value="&lt;font&gt;&lt;span style=&quot;font-size: 13px;&quot;&gt;&lt;b&gt;abs(din) &amp;gt; abs(temp_max)&lt;/b&gt;&lt;/span&gt;&lt;/font&gt;" style="text;whiteSpace=wrap;html=1;textShadow=0;labelBackgroundColor=none;glass=0;shadow=0;fontFamily=Times New Roman;fontColor=#FF3333;" vertex="1" parent="1">
          <mxGeometry x="524.03" y="437.75" width="190" height="40" as="geometry" />
        </mxCell>
        <mxCell id="yV69nBCy1edd1DYRwR0H-129" value="&lt;span style=&quot;font-size: 13px;&quot;&gt;&lt;b&gt;continue sreach maxium slope after first point found until win_cnt &amp;gt; (win_th+loc)&lt;/b&gt;&lt;/span&gt;" style="text;whiteSpace=wrap;html=1;textShadow=0;labelBackgroundColor=none;glass=0;shadow=0;fontFamily=Times New Roman;fontColor=#FF3333;" vertex="1" parent="1">
          <mxGeometry x="315.03" y="519" width="230" height="40" as="geometry" />
        </mxCell>
        <mxCell id="yV69nBCy1edd1DYRwR0H-130" value="&lt;span style=&quot;font-size: 13px;&quot;&gt;&lt;b&gt;when end of window, if&amp;nbsp; the polarity has not reversed, as correction.&lt;/b&gt;&lt;/span&gt;" style="text;whiteSpace=wrap;html=1;textShadow=0;labelBackgroundColor=none;glass=0;shadow=0;fontFamily=Times New Roman;fontColor=#FF3333;" vertex="1" parent="1">
          <mxGeometry x="221.02999999999997" y="719" width="386" height="40" as="geometry" />
        </mxCell>
        <mxCell id="yV69nBCy1edd1DYRwR0H-131" value="" style="edgeStyle=elbowEdgeStyle;strokeColor=#000000;strokeWidth=4;entryX=0.5;entryY=0;entryDx=0;entryDy=0;rounded=1;align=center;verticalAlign=middle;fontFamily=Helvetica;fontSize=11;fontColor=default;labelBackgroundColor=default;endArrow=block;endFill=1;entryPerimeter=0;" edge="1" parent="1" target="yV69nBCy1edd1DYRwR0H-59">
          <mxGeometry width="100" height="100" relative="1" as="geometry">
            <mxPoint x="40.03" y="510" as="sourcePoint" />
            <mxPoint x="100.03" y="509.4999999999999" as="targetPoint" />
            <Array as="points">
              <mxPoint x="310.03" y="530" />
            </Array>
          </mxGeometry>
        </mxCell>
        <mxCell id="yV69nBCy1edd1DYRwR0H-132" value="win_th_cfg[7:0]" style="text;whiteSpace=wrap;html=1;strokeWidth=3;fontStyle=1" vertex="1" parent="1">
          <mxGeometry x="96.03" y="483" width="100" height="24" as="geometry" />
        </mxCell>
        <mxCell id="yV69nBCy1edd1DYRwR0H-133" value="" style="edgeStyle=orthogonalEdgeStyle;elbow=vertical;strokeColor=#000000;strokeWidth=4;entryX=0.25;entryY=1;entryDx=0;entryDy=0;rounded=1;align=center;verticalAlign=middle;fontFamily=Helvetica;fontSize=11;fontColor=default;labelBackgroundColor=default;endArrow=block;endFill=1;entryPerimeter=0;" edge="1" parent="1" target="yV69nBCy1edd1DYRwR0H-17">
          <mxGeometry width="100" height="100" relative="1" as="geometry">
            <mxPoint x="40" y="194.01999999999998" as="sourcePoint" />
            <mxPoint x="201" y="194.01999999999998" as="targetPoint" />
            <Array as="points">
              <mxPoint x="270.03" y="194" />
            </Array>
          </mxGeometry>
        </mxCell>
        <mxCell id="yV69nBCy1edd1DYRwR0H-134" value="th_sel" style="text;whiteSpace=wrap;html=1;strokeWidth=3;fontStyle=1" vertex="1" parent="1">
          <mxGeometry x="91.03" y="169" width="100" height="40" as="geometry" />
        </mxCell>
        <mxCell id="yV69nBCy1edd1DYRwR0H-135" value="module: dsss_bit_decoder" style="text;whiteSpace=wrap;html=1;strokeWidth=3;fontFamily=Verdana;fontSize=17;fontColor=default;labelBackgroundColor=default;fontStyle=3" vertex="1" parent="1">
          <mxGeometry x="60.03" y="826" width="280" height="30" as="geometry" />
        </mxCell>
        <mxCell id="yV69nBCy1edd1DYRwR0H-136" value="module: dsss_bit_decoder" style="text;whiteSpace=wrap;html=1;strokeWidth=3;fontFamily=Verdana;fontSize=17;fontColor=default;labelBackgroundColor=default;fontStyle=3" vertex="1" parent="1">
          <mxGeometry x="70" y="1710" width="280" height="30" as="geometry" />
        </mxCell>
        <mxCell id="yV69nBCy1edd1DYRwR0H-145" value="" style="strokeColor=#67AB9F;strokeWidth=2;entryX=0;entryY=0.25;entryDx=0;entryDy=0;rounded=1;align=center;verticalAlign=middle;fontFamily=Helvetica;fontSize=11;fontColor=default;labelBackgroundColor=default;endArrow=none;endFill=0;exitX=1;exitY=0.5;exitDx=0;exitDy=0;edgeStyle=elbowEdgeStyle;" edge="1" parent="1" source="yV69nBCy1edd1DYRwR0H-170" target="yV69nBCy1edd1DYRwR0H-154">
          <mxGeometry width="100" height="100" relative="1" as="geometry">
            <mxPoint x="40.03" y="1060.5" as="sourcePoint" />
            <mxPoint x="201" y="1060.5" as="targetPoint" />
            <Array as="points">
              <mxPoint x="370" y="1060" />
            </Array>
          </mxGeometry>
        </mxCell>
        <mxCell id="yV69nBCy1edd1DYRwR0H-148" value="&amp;lt;bmc_width_th&amp;gt;" style="text;whiteSpace=wrap;html=1;strokeWidth=3;fontStyle=1" vertex="1" parent="1">
          <mxGeometry x="70" y="1034" width="100" height="24" as="geometry" />
        </mxCell>
        <mxCell id="yV69nBCy1edd1DYRwR0H-150" value="" style="strokeColor=#67AB9F;strokeWidth=2;rounded=1;align=center;verticalAlign=middle;fontFamily=Helvetica;fontSize=11;fontColor=default;labelBackgroundColor=default;endArrow=none;endFill=0;exitX=1;exitY=0.5;exitDx=0;exitDy=0;edgeStyle=elbowEdgeStyle;" edge="1" parent="1" source="yV69nBCy1edd1DYRwR0H-171" target="yV69nBCy1edd1DYRwR0H-154">
          <mxGeometry width="100" height="100" relative="1" as="geometry">
            <mxPoint x="40.03" y="1110.5" as="sourcePoint" />
            <mxPoint x="300" y="1110" as="targetPoint" />
            <Array as="points">
              <mxPoint x="370" y="1100" />
            </Array>
          </mxGeometry>
        </mxCell>
        <mxCell id="yV69nBCy1edd1DYRwR0H-151" value="bmc_width" style="text;whiteSpace=wrap;html=1;strokeWidth=3;fontStyle=1" vertex="1" parent="1">
          <mxGeometry x="70" y="1080" width="100" height="24" as="geometry" />
        </mxCell>
        <mxCell id="yV69nBCy1edd1DYRwR0H-152" value="" style="elbow=vertical;strokeColor=#000000;strokeWidth=4;entryX=0;entryY=0.5;entryDx=0;entryDy=0;rounded=1;align=center;verticalAlign=middle;fontFamily=Helvetica;fontSize=11;fontColor=default;labelBackgroundColor=default;endArrow=block;endFill=1;" edge="1" parent="1">
          <mxGeometry width="100" height="100" relative="1" as="geometry">
            <mxPoint x="40.03" y="1335.47" as="sourcePoint" />
            <mxPoint x="201" y="1335.47" as="targetPoint" />
          </mxGeometry>
        </mxCell>
        <mxCell id="yV69nBCy1edd1DYRwR0H-153" value="toggle_int" style="text;whiteSpace=wrap;html=1;strokeWidth=3;fontStyle=1" vertex="1" parent="1">
          <mxGeometry x="70" y="1304.5" width="100" height="24" as="geometry" />
        </mxCell>
        <mxCell id="yV69nBCy1edd1DYRwR0H-154" value="&lt;p style=&quot;margin-top: 0pt; margin-bottom: 0pt; margin-left: 0in; direction: ltr; unicode-bidi: embed; word-break: normal;&quot;&gt;&lt;font face=&quot;等线&quot;&gt;&lt;span style=&quot;font-size: 13.3333px;&quot;&gt;WIDTH&amp;nbsp;&lt;/span&gt;&lt;/font&gt;&lt;/p&gt;&lt;p style=&quot;margin-top: 0pt; margin-bottom: 0pt; margin-left: 0in; direction: ltr; unicode-bidi: embed; word-break: normal;&quot;&gt;&lt;font face=&quot;等线&quot;&gt;&lt;span style=&quot;font-size: 13.3333px;&quot;&gt;COMPARER&lt;/span&gt;&lt;/font&gt;&lt;/p&gt;" style="rounded=0;whiteSpace=wrap;html=1;strokeColor=default;strokeWidth=2;align=left;verticalAlign=middle;fontFamily=Helvetica;fontSize=12;fontColor=default;fontStyle=1;fillColor=#FFFFFF;shadow=0;" vertex="1" parent="1">
          <mxGeometry x="400" y="1039" width="154.78" height="130" as="geometry" />
        </mxCell>
        <mxCell id="yV69nBCy1edd1DYRwR0H-155" value="" style="shape=image;verticalLabelPosition=bottom;labelBackgroundColor=default;verticalAlign=top;aspect=fixed;imageAspect=0;image=data:image/png,iVBORw0KGgoAAAANSUhEUgAAACoAAAA5CAMAAAEAWHnKAAAAAXNSR0IArs4c6QAAAARnQU1BAACxjwv8YQUAAAA/UExURQAAAAAAAAAAAAAAAAAAAAAAAAAAAAAAAAAAAAAAAAAAAAAAAAAAAAAAAAAAAAAAAAAAAAAAAAAAAAAAAAAAALMlgi8AAAAUdFJOUwAIEIcglzCfOKdAt1jPaHDf54Dv4vA5JAAAAAlwSFlzAAAXEQAAFxEByibzPwAAAQdJREFUOE/tlNsOgjAQRAfEu1WE+f9vNe1KW7YrQgIPJs5DszkMs2VJC2hR1l2qI0smrSaswdCnUrA8mxIZoymvC40lwJiSquVyQ6RL4V0sO8JJdc9a5/0SznZsVKhitbb01zeOpPytXE9PFevIPk4gY2MCoKU9ZNq87GRbLVYZ7Gd00wB4kKcSlROqA2wVFawD/OCKAA8vRQDJA2oVEKCWCWFsCcBxKT5r9oGaCVtAXC0I7DX4ax01D1deSlreZJ+DkY5iEhWHY6z6nWjdiVrd4Jxunxm/tRdjf/DbmGwfjV61fpppZJxU+PA5xuFGauddvDL9Lcxt2LGmhman/oJxyfCr60zjC0BSF19ImznkAAAAAElFTkSuQmCC;strokeWidth=3;" vertex="1" parent="1">
          <mxGeometry x="134.52999999999997" y="1300" width="21" height="28.5" as="geometry" />
        </mxCell>
        <mxCell id="yV69nBCy1edd1DYRwR0H-157" style="rounded=1;orthogonalLoop=1;jettySize=auto;html=1;exitX=0;exitY=0.75;exitDx=0;exitDy=0;strokeColor=#67AB9F;strokeWidth=2;align=center;verticalAlign=middle;fontFamily=Helvetica;fontSize=11;fontColor=default;labelBackgroundColor=default;elbow=vertical;endArrow=none;endFill=0;exitPerimeter=0;" edge="1" source="yV69nBCy1edd1DYRwR0H-159" parent="1">
          <mxGeometry relative="1" as="geometry">
            <mxPoint x="90" y="1252" as="targetPoint" />
            <mxPoint x="137.49999999999997" y="1252" as="sourcePoint" />
          </mxGeometry>
        </mxCell>
        <mxCell id="yV69nBCy1edd1DYRwR0H-158" style="rounded=1;orthogonalLoop=1;jettySize=auto;html=1;exitX=1;exitY=0.25;exitDx=0;exitDy=0;exitPerimeter=0;strokeColor=#67AB9F;strokeWidth=2;align=center;verticalAlign=middle;fontFamily=Helvetica;fontSize=11;fontColor=default;labelBackgroundColor=default;endArrow=none;endFill=0;entryX=0.5;entryY=1;entryDx=0;entryDy=0;entryPerimeter=0;edgeStyle=elbowEdgeStyle;elbow=vertical;" edge="1" source="yV69nBCy1edd1DYRwR0H-159" parent="1" target="yV69nBCy1edd1DYRwR0H-173">
          <mxGeometry relative="1" as="geometry">
            <mxPoint x="417.03" y="1211" as="targetPoint" />
            <Array as="points">
              <mxPoint x="310" y="1212" />
            </Array>
          </mxGeometry>
        </mxCell>
        <mxCell id="yV69nBCy1edd1DYRwR0H-159" value="" style="verticalLabelPosition=bottom;shadow=0;dashed=0;align=center;html=1;verticalAlign=top;shape=mxgraph.electrical.logic_gates.d_type_flip-flop;strokeWidth=2;rounded=1;strokeColor=default;fontFamily=Helvetica;fontSize=12;fontColor=default;labelBackgroundColor=default;fillColor=default;" vertex="1" parent="1">
          <mxGeometry x="174.52999999999997" y="1192" width="100" height="80" as="geometry" />
        </mxCell>
        <mxCell id="yV69nBCy1edd1DYRwR0H-161" value="&lt;span style=&quot;font-weight: 700;&quot;&gt;toggle_int&lt;/span&gt;" style="text;whiteSpace=wrap;html=1;strokeWidth=3;fontSize=11;" vertex="1" parent="1">
          <mxGeometry x="115.53" y="1226.05" width="90" height="24.95" as="geometry" />
        </mxCell>
        <mxCell id="yV69nBCy1edd1DYRwR0H-162" value="last_width" style="text;whiteSpace=wrap;html=1;strokeWidth=3;fontFamily=Helvetica;fontSize=11;fontColor=default;labelBackgroundColor=none;fontStyle=1" vertex="1" parent="1">
          <mxGeometry x="315.03" y="1196.05" width="64.97" height="30" as="geometry" />
        </mxCell>
        <mxCell id="yV69nBCy1edd1DYRwR0H-167" value="" style="shape=image;verticalLabelPosition=bottom;labelBackgroundColor=default;verticalAlign=top;aspect=fixed;imageAspect=0;image=data:image/png,iVBORw0KGgoAAAANSUhEUgAAACoAAAA5CAMAAAEAWHnKAAAAAXNSR0IArs4c6QAAAARnQU1BAACxjwv8YQUAAAA/UExURQAAAAAAAAAAAAAAAAAAAAAAAAAAAAAAAAAAAAAAAAAAAAAAAAAAAAAAAAAAAAAAAAAAAAAAAAAAAAAAAAAAALMlgi8AAAAUdFJOUwAIEIcglzCfOKdAt1jPaHDf54Dv4vA5JAAAAAlwSFlzAAAXEQAAFxEByibzPwAAAQdJREFUOE/tlNsOgjAQRAfEu1WE+f9vNe1KW7YrQgIPJs5DszkMs2VJC2hR1l2qI0smrSaswdCnUrA8mxIZoymvC40lwJiSquVyQ6RL4V0sO8JJdc9a5/0SznZsVKhitbb01zeOpPytXE9PFevIPk4gY2MCoKU9ZNq87GRbLVYZ7Gd00wB4kKcSlROqA2wVFawD/OCKAA8vRQDJA2oVEKCWCWFsCcBxKT5r9oGaCVtAXC0I7DX4ax01D1deSlreZJ+DkY5iEhWHY6z6nWjdiVrd4Jxunxm/tRdjf/DbmGwfjV61fpppZJxU+PA5xuFGauddvDL9Lcxt2LGmhman/oJxyfCr60zjC0BSF19ImznkAAAAAElFTkSuQmCC;rotation=90;strokeWidth=3;" vertex="1" parent="1">
          <mxGeometry x="94.53" y="1226.05" width="21" height="28.5" as="geometry" />
        </mxCell>
        <mxCell id="yV69nBCy1edd1DYRwR0H-173" value="" style="verticalLabelPosition=bottom;verticalAlign=top;html=1;shape=mxgraph.flowchart.summing_function;strokeWidth=2;shadow=0;aspect=fixed;" vertex="1" parent="1">
          <mxGeometry x="290" y="1130" width="30" height="30" as="geometry" />
        </mxCell>
        <mxCell id="yV69nBCy1edd1DYRwR0H-175" style="rounded=1;orthogonalLoop=1;jettySize=auto;html=1;exitX=1;exitY=0.5;exitDx=0;exitDy=0;exitPerimeter=0;strokeColor=#67AB9F;strokeWidth=2;align=center;verticalAlign=middle;fontFamily=Helvetica;fontSize=11;fontColor=default;labelBackgroundColor=default;endArrow=none;endFill=0;entryX=0;entryY=0.75;entryDx=0;entryDy=0;edgeStyle=elbowEdgeStyle;" edge="1" parent="1" source="yV69nBCy1edd1DYRwR0H-173" target="yV69nBCy1edd1DYRwR0H-154">
          <mxGeometry relative="1" as="geometry">
            <mxPoint x="453" y="1190" as="targetPoint" />
            <mxPoint x="390" y="1242" as="sourcePoint" />
            <Array as="points">
              <mxPoint x="370" y="1145" />
            </Array>
          </mxGeometry>
        </mxCell>
        <mxCell id="yV69nBCy1edd1DYRwR0H-177" value="sum_width" style="text;whiteSpace=wrap;html=1;strokeWidth=3;fontFamily=Helvetica;fontSize=11;fontColor=default;labelBackgroundColor=none;fontStyle=1" vertex="1" parent="1">
          <mxGeometry x="329.53" y="1139" width="40" height="30" as="geometry" />
        </mxCell>
        <mxCell id="yV69nBCy1edd1DYRwR0H-181" style="edgeStyle=orthogonalEdgeStyle;rounded=1;orthogonalLoop=1;jettySize=auto;html=1;exitX=1;exitY=0.5;exitDx=0;exitDy=0;entryX=0;entryY=0.5;entryDx=0;entryDy=0;strokeColor=#67AB9F;strokeWidth=2;align=center;verticalAlign=middle;fontFamily=Helvetica;fontSize=11;fontColor=default;labelBackgroundColor=default;elbow=vertical;endArrow=none;endFill=0;" edge="1" parent="1" source="yV69nBCy1edd1DYRwR0H-178" target="yV69nBCy1edd1DYRwR0H-185">
          <mxGeometry relative="1" as="geometry">
            <mxPoint x="630" y="1074.8333333333335" as="targetPoint" />
          </mxGeometry>
        </mxCell>
        <mxCell id="yV69nBCy1edd1DYRwR0H-178" value="full" style="text;html=1;align=right;verticalAlign=middle;whiteSpace=wrap;rounded=0;" vertex="1" parent="1">
          <mxGeometry x="493.78" y="1065" width="60" height="20" as="geometry" />
        </mxCell>
        <mxCell id="yV69nBCy1edd1DYRwR0H-182" style="edgeStyle=orthogonalEdgeStyle;rounded=1;orthogonalLoop=1;jettySize=auto;html=1;exitX=1;exitY=0.5;exitDx=0;exitDy=0;strokeColor=#67AB9F;strokeWidth=2;align=center;verticalAlign=middle;fontFamily=Helvetica;fontSize=11;fontColor=default;labelBackgroundColor=default;elbow=vertical;endArrow=none;endFill=0;entryX=0;entryY=0.5;entryDx=0;entryDy=0;" edge="1" parent="1" source="yV69nBCy1edd1DYRwR0H-179" target="yV69nBCy1edd1DYRwR0H-202">
          <mxGeometry relative="1" as="geometry">
            <mxPoint x="640" y="1104" as="targetPoint" />
          </mxGeometry>
        </mxCell>
        <mxCell id="yV69nBCy1edd1DYRwR0H-179" value="sum full" style="text;html=1;align=right;verticalAlign=middle;whiteSpace=wrap;rounded=0;" vertex="1" parent="1">
          <mxGeometry x="493.78" y="1094" width="60" height="20" as="geometry" />
        </mxCell>
        <mxCell id="yV69nBCy1edd1DYRwR0H-184" style="edgeStyle=orthogonalEdgeStyle;rounded=1;orthogonalLoop=1;jettySize=auto;html=1;exitX=1;exitY=0.5;exitDx=0;exitDy=0;entryX=0;entryY=0.5;entryDx=0;entryDy=0;strokeColor=#67AB9F;strokeWidth=2;align=center;verticalAlign=middle;fontFamily=Helvetica;fontSize=11;fontColor=default;labelBackgroundColor=default;elbow=vertical;endArrow=none;endFill=0;" edge="1" parent="1" source="yV69nBCy1edd1DYRwR0H-180" target="yV69nBCy1edd1DYRwR0H-201">
          <mxGeometry relative="1" as="geometry">
            <mxPoint x="640" y="1135" as="targetPoint" />
          </mxGeometry>
        </mxCell>
        <mxCell id="yV69nBCy1edd1DYRwR0H-180" value="less full" style="text;html=1;align=right;verticalAlign=middle;whiteSpace=wrap;rounded=0;" vertex="1" parent="1">
          <mxGeometry x="493.78" y="1125" width="60" height="20" as="geometry" />
        </mxCell>
        <mxCell id="yV69nBCy1edd1DYRwR0H-185" value="is_full" style="text;whiteSpace=wrap;html=1;strokeWidth=3;fontFamily=Helvetica;fontSize=11;fontColor=default;labelBackgroundColor=none;fontStyle=1" vertex="1" parent="1">
          <mxGeometry x="590" y="1060" width="64.97" height="30" as="geometry" />
        </mxCell>
        <mxCell id="yV69nBCy1edd1DYRwR0H-191" value="" style="elbow=vertical;strokeColor=#000000;strokeWidth=4;entryX=0;entryY=0.5;entryDx=0;entryDy=0;rounded=1;align=center;verticalAlign=middle;fontFamily=Helvetica;fontSize=11;fontColor=default;labelBackgroundColor=default;endArrow=block;endFill=1;" edge="1" parent="1">
          <mxGeometry width="100" height="100" relative="1" as="geometry">
            <mxPoint x="40.03" y="1060" as="sourcePoint" />
            <mxPoint x="201" y="1060" as="targetPoint" />
          </mxGeometry>
        </mxCell>
        <mxCell id="yV69nBCy1edd1DYRwR0H-170" value="" style="whiteSpace=wrap;html=1;aspect=fixed;" vertex="1" parent="1">
          <mxGeometry x="30" y="1050" width="20" height="20" as="geometry" />
        </mxCell>
        <mxCell id="yV69nBCy1edd1DYRwR0H-192" value="" style="elbow=vertical;strokeColor=#000000;strokeWidth=4;entryX=0;entryY=0.5;entryDx=0;entryDy=0;rounded=1;align=center;verticalAlign=middle;fontFamily=Helvetica;fontSize=11;fontColor=default;labelBackgroundColor=default;endArrow=block;endFill=1;" edge="1" parent="1">
          <mxGeometry width="100" height="100" relative="1" as="geometry">
            <mxPoint x="40.03" y="1110" as="sourcePoint" />
            <mxPoint x="201" y="1110" as="targetPoint" />
          </mxGeometry>
        </mxCell>
        <mxCell id="yV69nBCy1edd1DYRwR0H-171" value="" style="whiteSpace=wrap;html=1;aspect=fixed;" vertex="1" parent="1">
          <mxGeometry x="30" y="1100" width="20" height="20" as="geometry" />
        </mxCell>
        <mxCell id="yV69nBCy1edd1DYRwR0H-196" value="bmc_correct" style="text;whiteSpace=wrap;html=1;strokeWidth=3;fontStyle=1" vertex="1" parent="1">
          <mxGeometry x="70" y="983" width="100" height="24" as="geometry" />
        </mxCell>
        <mxCell id="yV69nBCy1edd1DYRwR0H-197" value="" style="elbow=vertical;strokeColor=#000000;strokeWidth=4;entryX=0;entryY=0.5;entryDx=0;entryDy=0;rounded=1;align=center;verticalAlign=middle;fontFamily=Helvetica;fontSize=11;fontColor=default;labelBackgroundColor=default;endArrow=block;endFill=1;" edge="1" parent="1">
          <mxGeometry width="100" height="100" relative="1" as="geometry">
            <mxPoint x="40.03" y="1009" as="sourcePoint" />
            <mxPoint x="201" y="1009" as="targetPoint" />
          </mxGeometry>
        </mxCell>
        <mxCell id="yV69nBCy1edd1DYRwR0H-198" value="" style="whiteSpace=wrap;html=1;aspect=fixed;" vertex="1" parent="1">
          <mxGeometry x="30" y="999" width="20" height="20" as="geometry" />
        </mxCell>
        <mxCell id="yV69nBCy1edd1DYRwR0H-199" value="" style="shape=image;verticalLabelPosition=bottom;labelBackgroundColor=default;verticalAlign=top;aspect=fixed;imageAspect=0;image=data:image/png,iVBORw0KGgoAAAANSUhEUgAAACoAAAA5CAMAAAEAWHnKAAAAAXNSR0IArs4c6QAAAARnQU1BAACxjwv8YQUAAAA/UExURQAAAAAAAAAAAAAAAAAAAAAAAAAAAAAAAAAAAAAAAAAAAAAAAAAAAAAAAAAAAAAAAAAAAAAAAAAAAAAAAAAAALMlgi8AAAAUdFJOUwAIEIcglzCfOKdAt1jPaHDf54Dv4vA5JAAAAAlwSFlzAAAXEQAAFxEByibzPwAAAQdJREFUOE/tlNsOgjAQRAfEu1WE+f9vNe1KW7YrQgIPJs5DszkMs2VJC2hR1l2qI0smrSaswdCnUrA8mxIZoymvC40lwJiSquVyQ6RL4V0sO8JJdc9a5/0SznZsVKhitbb01zeOpPytXE9PFevIPk4gY2MCoKU9ZNq87GRbLVYZ7Gd00wB4kKcSlROqA2wVFawD/OCKAA8vRQDJA2oVEKCWCWFsCcBxKT5r9oGaCVtAXC0I7DX4ax01D1deSlreZJ+DkY5iEhWHY6z6nWjdiVrd4Jxunxm/tRdjf/DbmGwfjV61fpppZJxU+PA5xuFGauddvDL9Lcxt2LGmhman/oJxyfCr60zjC0BSF19ImznkAAAAAElFTkSuQmCC;strokeWidth=3;" vertex="1" parent="1">
          <mxGeometry x="152.03" y="970.5" width="21" height="28.5" as="geometry" />
        </mxCell>
        <mxCell id="yV69nBCy1edd1DYRwR0H-206" style="edgeStyle=elbowEdgeStyle;rounded=0;orthogonalLoop=1;jettySize=auto;html=1;exitX=0;exitY=0.25;exitDx=0;exitDy=0;exitPerimeter=0;entryX=1;entryY=0.5;entryDx=0;entryDy=0;strokeColor=#67AB9F;strokeWidth=2;align=center;verticalAlign=middle;fontFamily=Helvetica;fontSize=11;fontColor=default;labelBackgroundColor=default;endArrow=none;endFill=0;curved=0;" edge="1" parent="1" source="yV69nBCy1edd1DYRwR0H-200" target="yV69nBCy1edd1DYRwR0H-209">
          <mxGeometry relative="1" as="geometry">
            <mxPoint x="417" y="1294.2" as="targetPoint" />
            <Array as="points">
              <mxPoint x="413.5" y="1303.95" />
            </Array>
          </mxGeometry>
        </mxCell>
        <mxCell id="yV69nBCy1edd1DYRwR0H-207" style="edgeStyle=elbowEdgeStyle;rounded=0;orthogonalLoop=1;jettySize=auto;html=1;exitX=0;exitY=0.5;exitDx=0;exitDy=0;exitPerimeter=0;strokeColor=#67AB9F;strokeWidth=2;align=center;verticalAlign=middle;fontFamily=Helvetica;fontSize=11;fontColor=default;labelBackgroundColor=default;endArrow=none;endFill=0;curved=0;" edge="1" parent="1" source="yV69nBCy1edd1DYRwR0H-200">
          <mxGeometry relative="1" as="geometry">
            <mxPoint x="397.5" y="1320.6958620689657" as="targetPoint" />
          </mxGeometry>
        </mxCell>
        <mxCell id="yV69nBCy1edd1DYRwR0H-208" style="edgeStyle=elbowEdgeStyle;rounded=0;orthogonalLoop=1;jettySize=auto;html=1;exitX=0;exitY=0.75;exitDx=0;exitDy=0;exitPerimeter=0;entryX=1;entryY=0.5;entryDx=0;entryDy=0;strokeColor=#67AB9F;strokeWidth=2;align=center;verticalAlign=middle;fontFamily=Helvetica;fontSize=11;fontColor=default;labelBackgroundColor=default;endArrow=none;endFill=0;curved=0;" edge="1" parent="1" source="yV69nBCy1edd1DYRwR0H-200" target="yV69nBCy1edd1DYRwR0H-210">
          <mxGeometry relative="1" as="geometry">
            <mxPoint x="397.5" y="1331.7303448275864" as="targetPoint" />
            <Array as="points">
              <mxPoint x="433.5" y="1343.95" />
            </Array>
          </mxGeometry>
        </mxCell>
        <mxCell id="yV69nBCy1edd1DYRwR0H-228" style="edgeStyle=orthogonalEdgeStyle;rounded=0;orthogonalLoop=1;jettySize=auto;html=1;exitX=1;exitY=0.5;exitDx=0;exitDy=0;exitPerimeter=0;strokeColor=#67AB9F;strokeWidth=2;align=center;verticalAlign=middle;fontFamily=Helvetica;fontSize=11;fontColor=default;labelBackgroundColor=default;endArrow=none;endFill=0;curved=0;entryX=0;entryY=0.25;entryDx=0;entryDy=0;entryPerimeter=0;" edge="1" parent="1" source="yV69nBCy1edd1DYRwR0H-200" target="yV69nBCy1edd1DYRwR0H-239">
          <mxGeometry relative="1" as="geometry">
            <mxPoint x="583.5" y="1320.6642857142858" as="targetPoint" />
          </mxGeometry>
        </mxCell>
        <mxCell id="yV69nBCy1edd1DYRwR0H-200" value="AND" style="shape=or;whiteSpace=wrap;html=1;strokeWidth=2;fontSize=13;shadow=0;aspect=fixed;" vertex="1" parent="1">
          <mxGeometry x="483.5" y="1299.4150000000002" width="40" height="42.67" as="geometry" />
        </mxCell>
        <mxCell id="yV69nBCy1edd1DYRwR0H-201" value="less_than_full" style="text;whiteSpace=wrap;html=1;strokeWidth=3;fontFamily=Helvetica;fontSize=11;fontColor=default;labelBackgroundColor=none;fontStyle=1" vertex="1" parent="1">
          <mxGeometry x="590" y="1120" width="64.97" height="30" as="geometry" />
        </mxCell>
        <mxCell id="yV69nBCy1edd1DYRwR0H-202" value="sum_is_full" style="text;whiteSpace=wrap;html=1;strokeWidth=3;fontFamily=Helvetica;fontSize=11;fontColor=default;labelBackgroundColor=none;fontStyle=1" vertex="1" parent="1">
          <mxGeometry x="590" y="1090" width="64.97" height="30" as="geometry" />
        </mxCell>
        <mxCell id="yV69nBCy1edd1DYRwR0H-203" value="" style="shape=image;verticalLabelPosition=bottom;labelBackgroundColor=default;verticalAlign=top;aspect=fixed;imageAspect=0;image=data:image/png,iVBORw0KGgoAAAANSUhEUgAAACoAAAA5CAMAAAEAWHnKAAAAAXNSR0IArs4c6QAAAARnQU1BAACxjwv8YQUAAAA/UExURQAAAAAAAAAAAAAAAAAAAAAAAAAAAAAAAAAAAAAAAAAAAAAAAAAAAAAAAAAAAAAAAAAAAAAAAAAAAAAAAAAAALMlgi8AAAAUdFJOUwAIEIcglzCfOKdAt1jPaHDf54Dv4vA5JAAAAAlwSFlzAAAXEQAAFxEByibzPwAAAQdJREFUOE/tlNsOgjAQRAfEu1WE+f9vNe1KW7YrQgIPJs5DszkMs2VJC2hR1l2qI0smrSaswdCnUrA8mxIZoymvC40lwJiSquVyQ6RL4V0sO8JJdc9a5/0SznZsVKhitbb01zeOpPytXE9PFevIPk4gY2MCoKU9ZNq87GRbLVYZ7Gd00wB4kKcSlROqA2wVFawD/OCKAA8vRQDJA2oVEKCWCWFsCcBxKT5r9oGaCVtAXC0I7DX4ax01D1deSlreZJ+DkY5iEhWHY6z6nWjdiVrd4Jxunxm/tRdjf/DbmGwfjV61fpppZJxU+PA5xuFGauddvDL9Lcxt2LGmhman/oJxyfCr60zjC0BSF19ImznkAAAAAElFTkSuQmCC;strokeWidth=3;" vertex="1" parent="1">
          <mxGeometry x="626.97" y="1054" width="21" height="28.5" as="geometry" />
        </mxCell>
        <mxCell id="yV69nBCy1edd1DYRwR0H-204" value="" style="shape=image;verticalLabelPosition=bottom;labelBackgroundColor=default;verticalAlign=top;aspect=fixed;imageAspect=0;image=data:image/png,iVBORw0KGgoAAAANSUhEUgAAACoAAAA5CAMAAAEAWHnKAAAAAXNSR0IArs4c6QAAAARnQU1BAACxjwv8YQUAAAA/UExURQAAAAAAAAAAAAAAAAAAAAAAAAAAAAAAAAAAAAAAAAAAAAAAAAAAAAAAAAAAAAAAAAAAAAAAAAAAAAAAAAAAALMlgi8AAAAUdFJOUwAIEIcglzCfOKdAt1jPaHDf54Dv4vA5JAAAAAlwSFlzAAAXEQAAFxEByibzPwAAAQdJREFUOE/tlNsOgjAQRAfEu1WE+f9vNe1KW7YrQgIPJs5DszkMs2VJC2hR1l2qI0smrSaswdCnUrA8mxIZoymvC40lwJiSquVyQ6RL4V0sO8JJdc9a5/0SznZsVKhitbb01zeOpPytXE9PFevIPk4gY2MCoKU9ZNq87GRbLVYZ7Gd00wB4kKcSlROqA2wVFawD/OCKAA8vRQDJA2oVEKCWCWFsCcBxKT5r9oGaCVtAXC0I7DX4ax01D1deSlreZJ+DkY5iEhWHY6z6nWjdiVrd4Jxunxm/tRdjf/DbmGwfjV61fpppZJxU+PA5xuFGauddvDL9Lcxt2LGmhman/oJxyfCr60zjC0BSF19ImznkAAAAAElFTkSuQmCC;strokeWidth=3;" vertex="1" parent="1">
          <mxGeometry x="655.53" y="1082.5" width="21" height="28.5" as="geometry" />
        </mxCell>
        <mxCell id="yV69nBCy1edd1DYRwR0H-205" value="" style="shape=image;verticalLabelPosition=bottom;labelBackgroundColor=default;verticalAlign=top;aspect=fixed;imageAspect=0;image=data:image/png,iVBORw0KGgoAAAANSUhEUgAAACoAAAA5CAMAAAEAWHnKAAAAAXNSR0IArs4c6QAAAARnQU1BAACxjwv8YQUAAAA/UExURQAAAAAAAAAAAAAAAAAAAAAAAAAAAAAAAAAAAAAAAAAAAAAAAAAAAAAAAAAAAAAAAAAAAAAAAAAAAAAAAAAAALMlgi8AAAAUdFJOUwAIEIcglzCfOKdAt1jPaHDf54Dv4vA5JAAAAAlwSFlzAAAXEQAAFxEByibzPwAAAQdJREFUOE/tlNsOgjAQRAfEu1WE+f9vNe1KW7YrQgIPJs5DszkMs2VJC2hR1l2qI0smrSaswdCnUrA8mxIZoymvC40lwJiSquVyQ6RL4V0sO8JJdc9a5/0SznZsVKhitbb01zeOpPytXE9PFevIPk4gY2MCoKU9ZNq87GRbLVYZ7Gd00wB4kKcSlROqA2wVFawD/OCKAA8vRQDJA2oVEKCWCWFsCcBxKT5r9oGaCVtAXC0I7DX4ax01D1deSlreZJ+DkY5iEhWHY6z6nWjdiVrd4Jxunxm/tRdjf/DbmGwfjV61fpppZJxU+PA5xuFGauddvDL9Lcxt2LGmhman/oJxyfCr60zjC0BSF19ImznkAAAAAElFTkSuQmCC;strokeWidth=3;" vertex="1" parent="1">
          <mxGeometry x="668.03" y="1115" width="21" height="28.5" as="geometry" />
        </mxCell>
        <mxCell id="yV69nBCy1edd1DYRwR0H-209" value="sum_is_full" style="text;whiteSpace=wrap;html=1;strokeWidth=3;fontFamily=Helvetica;fontSize=11;fontColor=default;labelBackgroundColor=none;fontStyle=1;align=right;" vertex="1" parent="1">
          <mxGeometry x="330.55999999999995" y="1280.25" width="64.97" height="30" as="geometry" />
        </mxCell>
        <mxCell id="yV69nBCy1edd1DYRwR0H-210" value="~bmc_correct" style="text;whiteSpace=wrap;html=1;strokeWidth=3;fontStyle=1;align=right;fontSize=11;" vertex="1" parent="1">
          <mxGeometry x="295.53" y="1336.8700000000001" width="100" height="24" as="geometry" />
        </mxCell>
        <mxCell id="yV69nBCy1edd1DYRwR0H-211" value="halfbmc_cnt" style="text;whiteSpace=wrap;html=1;strokeWidth=3;fontStyle=1;align=right;fontSize=11;" vertex="1" parent="1">
          <mxGeometry x="295.53" y="1308.7500000000002" width="100" height="24" as="geometry" />
        </mxCell>
        <mxCell id="yV69nBCy1edd1DYRwR0H-212" value="" style="shape=image;verticalLabelPosition=bottom;labelBackgroundColor=default;verticalAlign=top;aspect=fixed;imageAspect=0;image=data:image/png,iVBORw0KGgoAAAANSUhEUgAAACoAAAA5CAMAAAEAWHnKAAAAAXNSR0IArs4c6QAAAARnQU1BAACxjwv8YQUAAAA/UExURQAAAAAAAAAAAAAAAAAAAAAAAAAAAAAAAAAAAAAAAAAAAAAAAAAAAAAAAAAAAAAAAAAAAAAAAAAAAAAAAAAAALMlgi8AAAAUdFJOUwAIEIcglzCfOKdAt1jPaHDf54Dv4vA5JAAAAAlwSFlzAAAXEQAAFxEByibzPwAAAQdJREFUOE/tlNsOgjAQRAfEu1WE+f9vNe1KW7YrQgIPJs5DszkMs2VJC2hR1l2qI0smrSaswdCnUrA8mxIZoymvC40lwJiSquVyQ6RL4V0sO8JJdc9a5/0SznZsVKhitbb01zeOpPytXE9PFevIPk4gY2MCoKU9ZNq87GRbLVYZ7Gd00wB4kKcSlROqA2wVFawD/OCKAA8vRQDJA2oVEKCWCWFsCcBxKT5r9oGaCVtAXC0I7DX4ax01D1deSlreZJ+DkY5iEhWHY6z6nWjdiVrd4Jxunxm/tRdjf/DbmGwfjV61fpppZJxU+PA5xuFGauddvDL9Lcxt2LGmhman/oJxyfCr60zjC0BSF19ImznkAAAAAElFTkSuQmCC;rotation=90;strokeWidth=3;" vertex="1" parent="1">
          <mxGeometry x="311.53" y="1280" width="21" height="28.5" as="geometry" />
        </mxCell>
        <mxCell id="yV69nBCy1edd1DYRwR0H-213" value="" style="shape=image;verticalLabelPosition=bottom;labelBackgroundColor=default;verticalAlign=top;aspect=fixed;imageAspect=0;image=data:image/png,iVBORw0KGgoAAAANSUhEUgAAACoAAAA5CAMAAAEAWHnKAAAAAXNSR0IArs4c6QAAAARnQU1BAACxjwv8YQUAAAA/UExURQAAAAAAAAAAAAAAAAAAAAAAAAAAAAAAAAAAAAAAAAAAAAAAAAAAAAAAAAAAAAAAAAAAAAAAAAAAAAAAAAAAALMlgi8AAAAUdFJOUwAIEIcglzCfOKdAt1jPaHDf54Dv4vA5JAAAAAlwSFlzAAAXEQAAFxEByibzPwAAAQdJREFUOE/tlNsOgjAQRAfEu1WE+f9vNe1KW7YrQgIPJs5DszkMs2VJC2hR1l2qI0smrSaswdCnUrA8mxIZoymvC40lwJiSquVyQ6RL4V0sO8JJdc9a5/0SznZsVKhitbb01zeOpPytXE9PFevIPk4gY2MCoKU9ZNq87GRbLVYZ7Gd00wB4kKcSlROqA2wVFawD/OCKAA8vRQDJA2oVEKCWCWFsCcBxKT5r9oGaCVtAXC0I7DX4ax01D1deSlreZJ+DkY5iEhWHY6z6nWjdiVrd4Jxunxm/tRdjf/DbmGwfjV61fpppZJxU+PA5xuFGauddvDL9Lcxt2LGmhman/oJxyfCr60zjC0BSF19ImznkAAAAAElFTkSuQmCC;rotation=90;strokeWidth=3;" vertex="1" parent="1">
          <mxGeometry x="307.53" y="1309.2" width="21" height="28.5" as="geometry" />
        </mxCell>
        <mxCell id="yV69nBCy1edd1DYRwR0H-214" value="" style="shape=image;verticalLabelPosition=bottom;labelBackgroundColor=default;verticalAlign=top;aspect=fixed;imageAspect=0;image=data:image/png,iVBORw0KGgoAAAANSUhEUgAAACoAAAA5CAMAAAEAWHnKAAAAAXNSR0IArs4c6QAAAARnQU1BAACxjwv8YQUAAAA/UExURQAAAAAAAAAAAAAAAAAAAAAAAAAAAAAAAAAAAAAAAAAAAAAAAAAAAAAAAAAAAAAAAAAAAAAAAAAAAAAAAAAAALMlgi8AAAAUdFJOUwAIEIcglzCfOKdAt1jPaHDf54Dv4vA5JAAAAAlwSFlzAAAXEQAAFxEByibzPwAAAQdJREFUOE/tlNsOgjAQRAfEu1WE+f9vNe1KW7YrQgIPJs5DszkMs2VJC2hR1l2qI0smrSaswdCnUrA8mxIZoymvC40lwJiSquVyQ6RL4V0sO8JJdc9a5/0SznZsVKhitbb01zeOpPytXE9PFevIPk4gY2MCoKU9ZNq87GRbLVYZ7Gd00wB4kKcSlROqA2wVFawD/OCKAA8vRQDJA2oVEKCWCWFsCcBxKT5r9oGaCVtAXC0I7DX4ax01D1deSlreZJ+DkY5iEhWHY6z6nWjdiVrd4Jxunxm/tRdjf/DbmGwfjV61fpppZJxU+PA5xuFGauddvDL9Lcxt2LGmhman/oJxyfCr60zjC0BSF19ImznkAAAAAElFTkSuQmCC;rotation=90;strokeWidth=3;" vertex="1" parent="1">
          <mxGeometry x="302.53" y="1340.2" width="21" height="28.5" as="geometry" />
        </mxCell>
        <mxCell id="yV69nBCy1edd1DYRwR0H-229" style="edgeStyle=orthogonalEdgeStyle;rounded=0;orthogonalLoop=1;jettySize=auto;html=1;exitX=1;exitY=0.5;exitDx=0;exitDy=0;exitPerimeter=0;strokeColor=#67AB9F;strokeWidth=2;align=center;verticalAlign=middle;fontFamily=Helvetica;fontSize=11;fontColor=default;labelBackgroundColor=default;endArrow=none;endFill=0;curved=0;entryX=0.175;entryY=0.75;entryDx=0;entryDy=0;entryPerimeter=0;" edge="1" parent="1" source="yV69nBCy1edd1DYRwR0H-218" target="yV69nBCy1edd1DYRwR0H-237">
          <mxGeometry relative="1" as="geometry">
            <mxPoint x="583.5" y="1424.6642857142858" as="targetPoint" />
          </mxGeometry>
        </mxCell>
        <mxCell id="yV69nBCy1edd1DYRwR0H-218" value="AND" style="shape=or;whiteSpace=wrap;html=1;strokeWidth=2;fontSize=13;shadow=0;aspect=fixed;" vertex="1" parent="1">
          <mxGeometry x="483.5" y="1403.3650000000002" width="40" height="42.67" as="geometry" />
        </mxCell>
        <mxCell id="yV69nBCy1edd1DYRwR0H-225" style="edgeStyle=elbowEdgeStyle;rounded=0;orthogonalLoop=1;jettySize=auto;html=1;exitX=0;exitY=0.25;exitDx=0;exitDy=0;exitPerimeter=0;entryX=1;entryY=0.5;entryDx=0;entryDy=0;strokeColor=#67AB9F;strokeWidth=2;align=center;verticalAlign=middle;fontFamily=Helvetica;fontSize=11;fontColor=default;labelBackgroundColor=default;endArrow=none;endFill=0;curved=0;jumpStyle=arc;" edge="1" parent="1" source="yV69nBCy1edd1DYRwR0H-218" target="yV69nBCy1edd1DYRwR0H-209">
          <mxGeometry relative="1" as="geometry">
            <mxPoint x="463.5" y="1283.95" as="targetPoint" />
            <mxPoint x="551.5" y="1298.95" as="sourcePoint" />
            <Array as="points">
              <mxPoint x="413.5" y="1373.95" />
            </Array>
          </mxGeometry>
        </mxCell>
        <mxCell id="yV69nBCy1edd1DYRwR0H-226" style="edgeStyle=elbowEdgeStyle;rounded=0;orthogonalLoop=1;jettySize=auto;html=1;entryX=1;entryY=0.5;entryDx=0;entryDy=0;strokeColor=#67AB9F;strokeWidth=2;align=center;verticalAlign=middle;fontFamily=Helvetica;fontSize=11;fontColor=default;labelBackgroundColor=default;endArrow=none;endFill=0;exitX=0;exitY=0.5;exitDx=0;exitDy=0;curved=0;jumpStyle=arc;" edge="1" parent="1" source="yV69nBCy1edd1DYRwR0H-227" target="yV69nBCy1edd1DYRwR0H-210">
          <mxGeometry relative="1" as="geometry">
            <mxPoint x="473.5" y="1373.95" as="targetPoint" />
            <mxPoint x="423.5" y="1433.95" as="sourcePoint" />
            <Array as="points">
              <mxPoint x="433.5" y="1363.95" />
            </Array>
          </mxGeometry>
        </mxCell>
        <mxCell id="yV69nBCy1edd1DYRwR0H-227" value="" style="ellipse;whiteSpace=wrap;html=1;aspect=fixed;" vertex="1" parent="1">
          <mxGeometry x="472.53" y="1429.04" width="10" height="10" as="geometry" />
        </mxCell>
        <mxCell id="yV69nBCy1edd1DYRwR0H-230" value="bit_one" style="text;whiteSpace=wrap;html=1;strokeWidth=3;fontFamily=Helvetica;fontSize=11;fontColor=default;labelBackgroundColor=none;fontStyle=1" vertex="1" parent="1">
          <mxGeometry x="529.03" y="1297.95" width="64.97" height="20" as="geometry" />
        </mxCell>
        <mxCell id="yV69nBCy1edd1DYRwR0H-231" value="bit_zero_corrected" style="text;whiteSpace=wrap;html=1;strokeWidth=3;fontFamily=Helvetica;fontSize=11;fontColor=default;labelBackgroundColor=none;fontStyle=1" vertex="1" parent="1">
          <mxGeometry x="529.03" y="1424.04" width="64.97" height="20" as="geometry" />
        </mxCell>
        <mxCell id="yV69nBCy1edd1DYRwR0H-232" value="is_full" style="text;whiteSpace=wrap;html=1;strokeWidth=3;fontFamily=Helvetica;fontSize=11;fontColor=default;labelBackgroundColor=none;fontStyle=1" vertex="1" parent="1">
          <mxGeometry x="325.56000000000006" y="1363.95" width="64.97" height="30" as="geometry" />
        </mxCell>
        <mxCell id="yV69nBCy1edd1DYRwR0H-233" value="" style="shape=image;verticalLabelPosition=bottom;labelBackgroundColor=default;verticalAlign=top;aspect=fixed;imageAspect=0;image=data:image/png,iVBORw0KGgoAAAANSUhEUgAAACoAAAA5CAMAAAEAWHnKAAAAAXNSR0IArs4c6QAAAARnQU1BAACxjwv8YQUAAAA/UExURQAAAAAAAAAAAAAAAAAAAAAAAAAAAAAAAAAAAAAAAAAAAAAAAAAAAAAAAAAAAAAAAAAAAAAAAAAAAAAAAAAAALMlgi8AAAAUdFJOUwAIEIcglzCfOKdAt1jPaHDf54Dv4vA5JAAAAAlwSFlzAAAXEQAAFxEByibzPwAAAQdJREFUOE/tlNsOgjAQRAfEu1WE+f9vNe1KW7YrQgIPJs5DszkMs2VJC2hR1l2qI0smrSaswdCnUrA8mxIZoymvC40lwJiSquVyQ6RL4V0sO8JJdc9a5/0SznZsVKhitbb01zeOpPytXE9PFevIPk4gY2MCoKU9ZNq87GRbLVYZ7Gd00wB4kKcSlROqA2wVFawD/OCKAA8vRQDJA2oVEKCWCWFsCcBxKT5r9oGaCVtAXC0I7DX4ax01D1deSlreZJ+DkY5iEhWHY6z6nWjdiVrd4Jxunxm/tRdjf/DbmGwfjV61fpppZJxU+PA5xuFGauddvDL9Lcxt2LGmhman/oJxyfCr60zjC0BSF19ImznkAAAAAElFTkSuQmCC;rotation=90;strokeWidth=3;" vertex="1" parent="1">
          <mxGeometry x="302.53" y="1363.95" width="21" height="28.5" as="geometry" />
        </mxCell>
        <mxCell id="yV69nBCy1edd1DYRwR0H-234" style="edgeStyle=orthogonalEdgeStyle;rounded=0;orthogonalLoop=1;jettySize=auto;html=1;exitX=1;exitY=0.5;exitDx=0;exitDy=0;strokeColor=#67AB9F;strokeWidth=2;align=center;verticalAlign=middle;fontFamily=Helvetica;fontSize=11;fontColor=default;labelBackgroundColor=default;endArrow=none;endFill=0;curved=0;entryX=0.175;entryY=0.25;entryDx=0;entryDy=0;entryPerimeter=0;" edge="1" parent="1" source="yV69nBCy1edd1DYRwR0H-232" target="yV69nBCy1edd1DYRwR0H-237">
          <mxGeometry relative="1" as="geometry">
            <mxPoint x="583.5" y="1378.95" as="targetPoint" />
            <mxPoint x="553.5" y="1454.2357142857143" as="sourcePoint" />
          </mxGeometry>
        </mxCell>
        <mxCell id="yV69nBCy1edd1DYRwR0H-235" value="bit_zero" style="text;whiteSpace=wrap;html=1;strokeWidth=3;fontFamily=Helvetica;fontSize=11;fontColor=default;labelBackgroundColor=none;fontStyle=1" vertex="1" parent="1">
          <mxGeometry x="529.03" y="1356.95" width="64.97" height="20" as="geometry" />
        </mxCell>
        <mxCell id="yV69nBCy1edd1DYRwR0H-237" value="OR" style="shape=xor;whiteSpace=wrap;html=1;strokeWidth=2;shadow=0;aspect=fixed;fontSize=13;" vertex="1" parent="1">
          <mxGeometry x="600" y="1368.7" width="40" height="38.26" as="geometry" />
        </mxCell>
        <mxCell id="yV69nBCy1edd1DYRwR0H-238" value="" style="ellipse;whiteSpace=wrap;html=1;aspect=fixed;" vertex="1" parent="1">
          <mxGeometry x="640" y="1381.5" width="10" height="10" as="geometry" />
        </mxCell>
        <mxCell id="yV69nBCy1edd1DYRwR0H-241" style="edgeStyle=orthogonalEdgeStyle;rounded=1;orthogonalLoop=1;jettySize=auto;html=1;exitX=1;exitY=0.5;exitDx=0;exitDy=0;exitPerimeter=0;strokeColor=#000000;strokeWidth=4;align=center;verticalAlign=middle;fontFamily=Helvetica;fontSize=11;fontColor=default;labelBackgroundColor=default;elbow=vertical;endArrow=block;endFill=1;" edge="1" parent="1" source="yV69nBCy1edd1DYRwR0H-239">
          <mxGeometry relative="1" as="geometry">
            <mxPoint x="830" y="1347" as="targetPoint" />
          </mxGeometry>
        </mxCell>
        <mxCell id="yV69nBCy1edd1DYRwR0H-239" value="AND" style="shape=or;whiteSpace=wrap;html=1;strokeWidth=2;fontSize=13;shadow=0;aspect=fixed;" vertex="1" parent="1">
          <mxGeometry x="679.5" y="1326.03" width="40" height="42.67" as="geometry" />
        </mxCell>
        <mxCell id="yV69nBCy1edd1DYRwR0H-240" style="edgeStyle=orthogonalEdgeStyle;rounded=0;orthogonalLoop=1;jettySize=auto;html=1;exitX=1;exitY=0.5;exitDx=0;exitDy=0;entryX=0;entryY=0.75;entryDx=0;entryDy=0;entryPerimeter=0;strokeColor=#67AB9F;strokeWidth=2;align=center;verticalAlign=middle;fontFamily=Helvetica;fontSize=11;fontColor=default;labelBackgroundColor=default;endArrow=none;endFill=0;curved=0;" edge="1" parent="1" source="yV69nBCy1edd1DYRwR0H-238" target="yV69nBCy1edd1DYRwR0H-239">
          <mxGeometry relative="1" as="geometry">
            <Array as="points">
              <mxPoint x="667.47" y="1387" />
              <mxPoint x="667.47" y="1358" />
            </Array>
          </mxGeometry>
        </mxCell>
        <mxCell id="yV69nBCy1edd1DYRwR0H-242" value="bit_data" style="text;whiteSpace=wrap;html=1;strokeWidth=3;fontFamily=Helvetica;fontSize=12;fontColor=default;labelBackgroundColor=none;fontStyle=1" vertex="1" parent="1">
          <mxGeometry x="737.06" y="1322.0900000000001" width="64.97" height="20" as="geometry" />
        </mxCell>
      </root>
    </mxGraphModel>
  </diagram>
</mxfile>
